<?xml version="1.0" encoding="UTF-8"?>
<svg version="1.1" xmlns="http://www.w3.org/2000/svg" width="990" height="990">
<path d="M0 0 C17.16 0 34.32 0 52 0 C52 16.83 52 33.66 52 51 C52.66 51 53.32 51 54 51 C54 57.6 54 64.2 54 71 C54.66 71 55.32 71 56 71 C56 74.96 56 78.92 56 83 C56.66 83 57.32 83 58 83 C58 86.3 58 89.6 58 93 C58.66 93 59.32 93 60 93 C60 96.3 60 99.6 60 103 C60.66 103 61.32 103 62 103 C63.45184478 107.53701494 64.23509196 111.18061476 64 116 C64.66 116 65.32 116 66 116 C66 117.98 66 119.96 66 122 C66.66 122 67.32 122 68 122 C68 123.98 68 125.96 68 128 C68.66 128 69.32 128 70 128 C70 129.98 70 131.96 70 134 C75.04886171 133.62133537 78.11891301 131.87775879 82.16796875 129.05859375 C84 128 84 128 87 128 C87 127.34 87 126.68 87 126 C88.98 126 90.96 126 93 126 C93 125.34 93 124.68 93 124 C94.98 124 96.96 124 99 124 C99 123.34 99 122.68 99 122 C101.64 122 104.28 122 107 122 C107 121.34 107 120.68 107 120 C110.3 120 113.6 120 117 120 C117 119.34 117 118.68 117 118 C130.86 118 144.72 118 159 118 C159 118.66 159 119.32 159 120 C162.3 120 165.6 120 169 120 C169 120.66 169 121.32 169 122 C171.64 122 174.28 122 177 122 C177 122.66 177 123.32 177 124 C178.32 124 179.64 124 181 124 C181 124.66 181 125.32 181 126 C182.98 126 184.96 126 187 126 C187 126.66 187 127.32 187 128 C188.32 128 189.64 128 191 128 C191 128.66 191 129.32 191 130 C192.32 130 193.64 130 195 130 C195 130.66 195 131.32 195 132 C196.32 132 197.64 132 199 132 C199 132.66 199 133.32 199 134 C199.928125 134.2165625 199.928125 134.2165625 200.875 134.4375 C203 135 203 135 205 136 C205 136.66 205 137.32 205 138 C206.32 138 207.64 138 209 138 C209 138.66 209 139.32 209 140 C209.66 140 210.32 140 211 140 C211 140.66 211 141.32 211 142 C212.98 142.66 214.96 143.32 217 144 C217 144.66 217 145.32 217 146 C217.66 146 218.32 146 219 146 C219 146.66 219 147.32 219 148 C219.66 148 220.32 148 221 148 C221 148.66 221 149.32 221 150 C221.66 150 222.32 150 223 150 C223 150.66 223 151.32 223 152 C223.66 152 224.32 152 225 152 C225 152.66 225 153.32 225 154 C225.66 154 226.32 154 227 154 C227 154.66 227 155.32 227 156 C227.66 156 228.32 156 229 156 C229.33 157.32 229.66 158.64 230 160 C230.66 160 231.32 160 232 160 C232 160.66 232 161.32 232 162 C232.66 162 233.32 162 234 162 C234 162.66 234 163.32 234 164 C234.66 164 235.32 164 236 164 C236 165.32 236 166.64 236 168 C236.66 168 237.32 168 238 168 C238 168.66 238 169.32 238 170 C238.66 170 239.32 170 240 170 C240 171.32 240 172.64 240 174 C240.66 174 241.32 174 242 174 C242 174.66 242 175.32 242 176 C242.66 176 243.32 176 244 176 C244 177.32 244 178.64 244 180 C244.66 180 245.32 180 246 180 C246 181.32 246 182.64 246 184 C246.66 184 247.32 184 248 184 C248 185.32 248 186.64 248 188 C248.66 188 249.32 188 250 188 C250 189.32 250 190.64 250 192 C250.66 192 251.32 192 252 192 C252 193.32 252 194.64 252 196 C252.66 196 253.32 196 254 196 C254 197.98 254 199.96 254 202 C254.66 202 255.32 202 256 202 C256 204.31 256 206.62 256 209 C256.66 209 257.32 209 258 209 C258 212.3 258 215.6 258 219 C258.66 219 259.32 219 260 219 C260 232.53 260 246.06 260 260 C259.34 260 258.68 260 258 260 C258 263.3 258 266.6 258 270 C257.34 270 256.68 270 256 270 C256 272.64 256 275.28 256 278 C255.34 278 254.68 278 254 278 C254 279.98 254 281.96 254 284 C253.34 284 252.68 284 252 284 C252 285.32 252 286.64 252 288 C251.34 288 250.68 288 250 288 C250 289.32 250 290.64 250 292 C249.34 292 248.68 292 248 292 C248 293.65 248 295.3 248 297 C247.34 297 246.68 297 246 297 C246 297.66 246 298.32 246 299 C245.34 299 244.68 299 244 299 C244 300.32 244 301.64 244 303 C243.34 303 242.68 303 242 303 C242 304.32 242 305.64 242 307 C241.34 307 240.68 307 240 307 C240 307.66 240 308.32 240 309 C239.34 309 238.68 309 238 309 C238 309.66 238 310.32 238 311 C237.34 311 236.68 311 236 311 C236 312.32 236 313.64 236 315 C235.34 315 234.68 315 234 315 C234 315.66 234 316.32 234 317 C233.34 317 232.68 317 232 317 C232 317.66 232 318.32 232 319 C231.34 319 230.68 319 230 319 C229.67 320.32 229.34 321.64 229 323 C228.34 323 227.68 323 227 323 C227 323.66 227 324.32 227 325 C226.34 325 225.68 325 225 325 C225 325.66 225 326.32 225 327 C224.34 327 223.68 327 223 327 C223 327.66 223 328.32 223 329 C222.34 329 221.68 329 221 329 C221 329.66 221 330.32 221 331 C220.34 331 219.68 331 219 331 C219 331.66 219 332.32 219 333 C218.34 333 217.68 333 217 333 C217 333.66 217 334.32 217 335 C216.34 335 215.68 335 215 335 C215 335.66 215 336.32 215 337 C213.68 337.66 212.36 338.32 211 339 C211 339.99 211 340.98 211 342 C211.66 342 212.32 342 213 342 C213 343.32 213 344.64 213 346 C213.66 346 214.32 346 215 346 C215 347.32 215 348.64 215 350 C215.66 350 216.32 350 217 350 C217 351.32 217 352.64 217 354 C217.66 354 218.32 354 219 354 C219 355.98 219 357.96 219 360 C219.66 360 220.32 360 221 360 C221 361.32 221 362.64 221 364 C221.66 364 222.32 364 223 364 C223 365.32 223 366.64 223 368 C223.66 368 224.32 368 225 368 C225 369.98 225 371.96 225 374 C225.66 374 226.32 374 227 374 C227 375.32 227 376.64 227 378 C227.66 378 228.32 378 229 378 C230.3271261 381.9813783 230.06915913 385.85045227 230 390 C230.66 390 231.32 390 232 390 C232 391.98 232 393.96 232 396 C232.66 396 233.32 396 234 396 C234 397.98 234 399.96 234 402 C234.66 402 235.32 402 236 402 C236 404.31 236 406.62 236 409 C236.66 409 237.32 409 238 409 C238 411.64 238 414.28 238 417 C238.66 417 239.32 417 240 417 C240 419.64 240 422.28 240 425 C240.66 425 241.32 425 242 425 C242 428.3 242 431.6 242 435 C242.66 435 243.32 435 244 435 C244 439.62 244 444.24 244 449 C244.66 449 245.32 449 246 449 C246 455.6 246 462.2 246 469 C246.66 469 247.32 469 248 469 C248 484.51 248 500.02 248 516 C247.34 516 246.68 516 246 516 C246 522.27 246 528.54 246 535 C245.34 535 244.68 535 244 535 C244 538.96 244 542.92 244 547 C243.34 547 242.68 547 242 547 C242 550.3 242 553.6 242 557 C241.34 557 240.68 557 240 557 C240 559.97 240 562.94 240 566 C239.34 566 238.68 566 238 566 C238 568.97 238 571.94 238 575 C237.34 575 236.68 575 236 575 C236 576.98 236 578.96 236 581 C235.34 581 234.68 581 234 581 C234 582.98 234 584.96 234 587 C233.34 587 232.68 587 232 587 C232 588.65 232 590.3 232 592 C231.34 592 230.68 592 230 592 C229.95101562 592.65226563 229.90203125 593.30453125 229.8515625 593.9765625 C229.42757771 598.93279853 228.84334427 603.33019451 227 608 C226.34 608 225.68 608 225 608 C225 609.32 225 610.64 225 612 C224.34 612 223.68 612 223 612 C223.061875 613.0828125 223.061875 613.0828125 223.125 614.1875 C222.99078695 617.20729369 222.24829381 619.26935729 221 622 C220.34 622 219.68 622 219 622 C219 623.32 219 624.64 219 626 C218.34 626 217.68 626 217 626 C217 627.32 217 628.64 217 630 C216.34 630 215.68 630 215 630 C215 631.32 215 632.64 215 634 C214.34 634 213.68 634 213 634 C213 635.32 213 636.64 213 638 C212.34 638 211.68 638 211 638 C210.34 639.98 209.68 641.96 209 644 C208.34 644 207.68 644 207 644 C207 645.32 207 646.64 207 648 C206.34 648 205.68 648 205 648 C205 648.66 205 649.32 205 650 C204.34 650 203.68 650 203 650 C203 651.32 203 652.64 203 654 C202.34 654 201.68 654 201 654 C201 655.32 201 656.64 201 658 C200.34 658 199.68 658 199 658 C199 658.66 199 659.32 199 660 C198.34 660 197.68 660 197 660 C197 661.32 197 662.64 197 664 C196.34 664 195.68 664 195 664 C195 664.66 195 665.32 195 666 C194.34 666 193.68 666 193 666 C193 666.66 193 667.32 193 668 C192.34 668 191.68 668 191 668 C191 669.32 191 670.64 191 672 C190.34 672 189.68 672 189 672 C189 672.66 189 673.32 189 674 C188.34 674 187.68 674 187 674 C187 675.32 187 676.64 187 678 C186.34 678 185.68 678 185 678 C185 678.66 185 679.32 185 680 C184.34 680 183.68 680 183 680 C183 680.66 183 681.32 183 682 C182.34 682 181.68 682 181 682 C181 682.66 181 683.32 181 684 C180.34 684 179.68 684 179 684 C179 685.32 179 686.64 179 688 C178.34 688 177.68 688 177 688 C177 688.66 177 689.32 177 690 C175.68 690.33 174.36 690.66 173 691 C173 691.66 173 692.32 173 693 C172.34 693 171.68 693 171 693 C171 693.66 171 694.32 171 695 C170.34 695 169.68 695 169 695 C169 695.66 169 696.32 169 697 C168.34 697 167.68 697 167 697 C166.34 698.98 165.68 700.96 165 703 C164.34 703 163.68 703 163 703 C163 703.66 163 704.32 163 705 C161.68 705 160.36 705 159 705 C159 706.32 159 707.64 159 709 C157.68 709 156.36 709 155 709 C155 709.66 155 710.32 155 711 C154.34 711 153.68 711 153 711 C153 711.66 153 712.32 153 713 C152.34 713 151.68 713 151 713 C151 713.66 151 714.32 151 715 C150.34 715 149.68 715 149 715 C149 715.66 149 716.32 149 717 C148.34 717 147.68 717 147 717 C147 717.66 147 718.32 147 719 C146.34 719 145.68 719 145 719 C145 719.66 145 720.32 145 721 C144.34 721 143.68 721 143 721 C143 721.66 143 722.32 143 723 C142.34 723 141.68 723 141 723 C141 723.66 141 724.32 141 725 C139.68 725 138.36 725 137 725 C137 725.66 137 726.32 137 727 C136.34 727 135.68 727 135 727 C135 727.66 135 728.32 135 729 C134.34 729 133.68 729 133 729 C133 729.66 133 730.32 133 731 C132.34 731 131.68 731 131 731 C131 731.66 131 732.32 131 733 C130.01 733 129.02 733 128 733 C128 733.66 128 734.32 128 735 C127.34 735 126.68 735 126 735 C126 735.66 126 736.32 126 737 C124.02 737.66 122.04 738.32 120 739 C120 739.66 120 740.32 120 741 C118.68 741 117.36 741 116 741 C116 741.66 116 742.32 116 743 C115.34 743 114.68 743 114 743 C114 743.66 114 744.32 114 745 C113.01 745 112.02 745 111 745 C111 745.66 111 746.32 111 747 C110.01 747 109.02 747 108 747 C108 747.66 108 748.32 108 749 C106.68 749 105.36 749 104 749 C104 749.66 104 750.32 104 751 C103.34 751 102.68 751 102 751 C102 751.66 102 752.32 102 753 C100.68 753 99.36 753 98 753 C98 753.66 98 754.32 98 755 C96.68 755 95.36 755 94 755 C94 755.66 94 756.32 94 757 C92.68 757 91.36 757 90 757 C90 757.66 90 758.32 90 759 C88.68 759 87.36 759 86 759 C86 759.66 86 760.32 86 761 C84.68 761 83.36 761 82 761 C82 761.66 82 762.32 82 763 C80.68 763 79.36 763 78 763 C78 763.66 78 764.32 78 765 C76.68 765 75.36 765 74 765 C74 765.66 74 766.32 74 767 C72.02 767 70.04 767 68 767 C68 767.66 68 768.32 68 769 C66.68 769 65.36 769 64 769 C64 769.66 64 770.32 64 771 C60.38026598 772.31626692 57.90432869 773 54 773 C54 773.66 54 774.32 54 775 C52.02 775 50.04 775 48 775 C48 775.66 48 776.32 48 777 C46.02 777 44.04 777 42 777 C42 777.66 42 778.32 42 779 C40.02 779 38.04 779 36 779 C36 779.66 36 780.32 36 781 C31.59044032 782.69598449 27.52361443 783.37075861 22.85546875 783.75390625 C20.98692794 783.81040615 20.98692794 783.81040615 20 785 C17.66702567 785.04092937 15.33294775 785.04241723 13 785 C13 785.66 13 786.32 13 787 C9.04 787 5.08 787 1 787 C1 787.66 1 788.32 1 789 C-8.93702032 789.84794907 -18.77736607 790.14931762 -28.75 790.1328125 C-30.22102881 790.13348902 -31.69205751 790.13446191 -33.16308594 790.13571167 C-36.22201621 790.13717232 -39.28091696 790.13508734 -42.33984375 790.13037109 C-46.21899772 790.12467483 -50.09808244 790.12796269 -53.97723389 790.13394356 C-57.00765484 790.13759371 -60.03805996 790.13639036 -63.06848145 790.13381577 C-64.49711109 790.13315875 -65.92574228 790.13393088 -67.35437012 790.13629532 C-76.6251959 790.14827977 -85.76426695 789.7881066 -95 789 C-95 788.34 -95 787.68 -95 787 C-95.60585938 787.02320313 -96.21171875 787.04640625 -96.8359375 787.0703125 C-103.14875029 787.20628078 -108.86431929 786.46211966 -115 785 C-115 784.34 -115 783.68 -115 783 C-117.64 783 -120.28 783 -123 783 C-123 782.34 -123 781.68 -123 781 C-124.5159375 781.0928125 -124.5159375 781.0928125 -126.0625 781.1875 C-130.39947898 780.98097719 -133.07744088 779.78298142 -137 778 C-138.98821313 777.60235737 -140.98732362 777.24544834 -143 777 C-143 776.34 -143 775.68 -143 775 C-144.32 775 -145.64 775 -147 775 C-147 774.34 -147 773.68 -147 773 C-148.98 773 -150.96 773 -153 773 C-153 772.34 -153 771.68 -153 771 C-154.65 771 -156.3 771 -158 771 C-158 770.34 -158 769.68 -158 769 C-159.32 769 -160.64 769 -162 769 C-162 768.34 -162 767.68 -162 767 C-162.9075 766.855625 -163.815 766.71125 -164.75 766.5625 C-167.21476956 766.13590527 -169.58847107 765.64925779 -172 765 C-172 764.34 -172 763.68 -172 763 C-173.32 763 -174.64 763 -176 763 C-176 762.34 -176 761.68 -176 761 C-177.32 761 -178.64 761 -180 761 C-180 760.34 -180 759.68 -180 759 C-181.32 759 -182.64 759 -184 759 C-184 758.34 -184 757.68 -184 757 C-185.32 757 -186.64 757 -188 757 C-188 756.34 -188 755.68 -188 755 C-189.32 755 -190.64 755 -192 755 C-192 754.34 -192 753.68 -192 753 C-193.32 753 -194.64 753 -196 753 C-196 752.34 -196 751.68 -196 751 C-196.66 751 -197.32 751 -198 751 C-198 750.34 -198 749.68 -198 749 C-199.32 749 -200.64 749 -202 749 C-202 748.34 -202 747.68 -202 747 C-202.66 747 -203.32 747 -204 747 C-204 746.34 -204 745.68 -204 745 C-205.32 745 -206.64 745 -208 745 C-208 744.34 -208 743.68 -208 743 C-208.66 743 -209.32 743 -210 743 C-210 742.34 -210 741.68 -210 741 C-211.32 741 -212.64 741 -214 741 C-214 740.34 -214 739.68 -214 739 C-214.66 739 -215.32 739 -216 739 C-216 738.34 -216 737.68 -216 737 C-217.32 737 -218.64 737 -220 737 C-220 736.34 -220 735.68 -220 735 C-220.66 735 -221.32 735 -222 735 C-222 734.34 -222 733.68 -222 733 C-222.66 733 -223.32 733 -224 733 C-224 732.34 -224 731.68 -224 731 C-225.32 731 -226.64 731 -228 731 C-228 730.34 -228 729.68 -228 729 C-228.66 729 -229.32 729 -230 729 C-230 728.34 -230 727.68 -230 727 C-230.66 727 -231.32 727 -232 727 C-232 726.34 -232 725.68 -232 725 C-232.66 725 -233.32 725 -234 725 C-234 724.34 -234 723.68 -234 723 C-234.66 723 -235.32 723 -236 723 C-236 722.34 -236 721.68 -236 721 C-237.32 721 -238.64 721 -240 721 C-240 720.34 -240 719.68 -240 719 C-240.66 719 -241.32 719 -242 719 C-242 718.34 -242 717.68 -242 717 C-242.66 717 -243.32 717 -244 717 C-244 716.34 -244 715.68 -244 715 C-244.66 715 -245.32 715 -246 715 C-246 714.34 -246 713.68 -246 713 C-246.66 713 -247.32 713 -248 713 C-248 712.34 -248 711.68 -248 711 C-248.66 711 -249.32 711 -250 711 C-250 710.34 -250 709.68 -250 709 C-250.66 709 -251.32 709 -252 709 C-252.33 707.68 -252.66 706.36 -253 705 C-253.66 705 -254.32 705 -255 705 C-255 704.34 -255 703.68 -255 703 C-255.66 703 -256.32 703 -257 703 C-257 702.34 -257 701.68 -257 701 C-257.66 701 -258.32 701 -259 701 C-259 700.34 -259 699.68 -259 699 C-259.66 699 -260.32 699 -261 699 C-261 698.34 -261 697.68 -261 697 C-261.66 697 -262.32 697 -263 697 C-263 696.34 -263 695.68 -263 695 C-263.66 695 -264.32 695 -265 695 C-265 694.34 -265 693.68 -265 693 C-265.66 693 -266.32 693 -267 693 C-267 692.34 -267 691.68 -267 691 C-268.32 690.67 -269.64 690.34 -271 690 C-271 688.68 -271 687.36 -271 686 C-271.66 686 -272.32 686 -273 686 C-273 685.34 -273 684.68 -273 684 C-273.66 684 -274.32 684 -275 684 C-275 683.34 -275 682.68 -275 682 C-275.66 682 -276.32 682 -277 682 C-277 681.34 -277 680.68 -277 680 C-277.66 680 -278.32 680 -279 680 C-279 679.34 -279 678.68 -279 678 C-279.66 678 -280.32 678 -281 678 C-281 676.68 -281 675.36 -281 674 C-281.66 674 -282.32 674 -283 674 C-283 673.34 -283 672.68 -283 672 C-283.66 672 -284.32 672 -285 672 C-285 670.68 -285 669.36 -285 668 C-285.66 668 -286.32 668 -287 668 C-287 667.34 -287 666.68 -287 666 C-287.66 666 -288.32 666 -289 666 C-289 665.01 -289 664.02 -289 663 C-289.66 663 -290.32 663 -291 663 C-291 662.01 -291 661.02 -291 660 C-291.66 660 -292.32 660 -293 660 C-293.66 658.02 -294.32 656.04 -295 654 C-295.66 654 -296.32 654 -297 654 C-297 652.68 -297 651.36 -297 650 C-297.66 650 -298.32 650 -299 650 C-299 649.34 -299 648.68 -299 648 C-299.66 648 -300.32 648 -301 648 C-301 646.68 -301 645.36 -301 644 C-301.66 644 -302.32 644 -303 644 C-303 642.68 -303 641.36 -303 640 C-303.66 640 -304.32 640 -305 640 C-305 638.68 -305 637.36 -305 636 C-305.66 636 -306.32 636 -307 636 C-307 634.68 -307 633.36 -307 632 C-307.66 632 -308.32 632 -309 632 C-309 631.34 -309 630.68 -309 630 C-309.66 630 -310.32 630 -311 630 C-311 628.68 -311 627.36 -311 626 C-311.66 626 -312.32 626 -313 626 C-314.31626692 622.38026598 -315 619.90432869 -315 616 C-315.66 616 -316.32 616 -317 616 C-317 614.68 -317 613.36 -317 612 C-317.66 612 -318.32 612 -319 612 C-319 610.68 -319 609.36 -319 608 C-319.66 608 -320.32 608 -321 608 C-321 606.02 -321 604.04 -321 602 C-321.66 602 -322.32 602 -323 602 C-323 600.02 -323 598.04 -323 596 C-323.66 596 -324.32 596 -325 596 C-325 594.68 -325 593.36 -325 592 C-325.66 592 -326.32 592 -327 592 C-327 590.02 -327 588.04 -327 586 C-327.66 586 -328.32 586 -329 586 C-329 583.69 -329 581.38 -329 579 C-329.66 579 -330.32 579 -331 579 C-331 577.02 -331 575.04 -331 573 C-331.66 573 -332.32 573 -333 573 C-333 570.36 -333 567.72 -333 565 C-333.66 565 -334.32 565 -335 565 C-335 561.7 -335 558.4 -335 555 C-335.66 555 -336.32 555 -337 555 C-337 551.7 -337 548.4 -337 545 C-337.66 545 -338.32 545 -339 545 C-339 540.38 -339 535.76 -339 531 C-339.66 531 -340.32 531 -341 531 C-341.02312446 521.23849012 -341.04091561 511.4769867 -341.05181217 501.71545506 C-341.05704078 497.18325906 -341.06413801 492.65108173 -341.07543945 488.11889648 C-341.08626914 483.7487717 -341.09227701 479.37866492 -341.09487724 475.00852776 C-341.09673135 473.33749037 -341.10035168 471.66645403 -341.10573006 469.99542427 C-341.11294159 467.66302449 -341.1139909 465.33070007 -341.11352539 462.99829102 C-341.11712067 462.3005809 -341.12071594 461.60287079 -341.12442017 460.88401794 C-341.11405216 456.11405216 -341.11405216 456.11405216 -340 455 C-339.76572222 452.98405418 -339.58663876 450.961526 -339.4375 448.9375 C-339.31181641 447.28041016 -339.31181641 447.28041016 -339.18359375 445.58984375 C-339.12300781 444.73519531 -339.06242188 443.88054687 -339 443 C-338.34 443 -337.68 443 -337 443 C-337 439.7 -337 436.4 -337 433 C-336.34 433 -335.68 433 -335 433 C-335 429.7 -335 426.4 -335 423 C-334.34 423 -333.68 423 -333 423 C-333 420.36 -333 417.72 -333 415 C-332.34 415 -331.68 415 -331 415 C-331 412.36 -331 409.72 -331 407 C-330.34 407 -329.68 407 -329 407 C-329 405.35 -329 403.7 -329 402 C-328.34 402 -327.68 402 -327 402 C-327 400.02 -327 398.04 -327 396 C-326.34 396 -325.68 396 -325 396 C-325 394.02 -325 392.04 -325 390 C-324.34 390 -323.68 390 -323 390 C-323 388.68 -323 387.36 -323 386 C-322.34 386 -321.68 386 -321 386 C-321 384.02 -321 382.04 -321 380 C-320.34 380 -319.68 380 -319 380 C-319 378.68 -319 377.36 -319 376 C-318.34 376 -317.68 376 -317 376 C-317 374.68 -317 373.36 -317 372 C-316.34 372 -315.68 372 -315 372 C-315 370.02 -315 368.04 -315 366 C-314.34 366 -313.68 366 -313 366 C-313 364.68 -313 363.36 -313 362 C-312.34 362 -311.68 362 -311 362 C-311 360.68 -311 359.36 -311 358 C-310.34 358 -309.68 358 -309 358 C-309 356.68 -309 355.36 -309 354 C-308.34 354 -307.68 354 -307 354 C-307 352.68 -307 351.36 -307 350 C-306.34 350 -305.68 350 -305 350 C-305 348.68 -305 347.36 -305 346 C-304.34 346 -303.68 346 -303 346 C-303 345.34 -303 344.68 -303 344 C-302.34 344 -301.68 344 -301 344 C-301 342.68 -301 341.36 -301 340 C-300.34 340 -299.68 340 -299 340 C-299 338.68 -299 337.36 -299 336 C-298.34 336 -297.68 336 -297 336 C-297 335.34 -297 334.68 -297 334 C-296.34 334 -295.68 334 -295 334 C-295 332.68 -295 331.36 -295 330 C-294.34 330 -293.68 330 -293 330 C-293 329.34 -293 328.68 -293 328 C-292.34 328 -291.68 328 -291 328 C-291 326.68 -291 325.36 -291 324 C-290.34 324 -289.68 324 -289 324 C-289 323.34 -289 322.68 -289 322 C-288.34 322 -287.68 322 -287 322 C-287 320.68 -287 319.36 -287 318 C-286.34 318 -285.68 318 -285 318 C-285 317.34 -285 316.68 -285 316 C-284.34 316 -283.68 316 -283 316 C-283 315.34 -283 314.68 -283 314 C-282.34 314 -281.68 314 -281 314 C-281 312.68 -281 311.36 -281 310 C-280.34 310 -279.68 310 -279 310 C-279 309.34 -279 308.68 -279 308 C-277.68 307.67 -276.36 307.34 -275 307 C-275 306.34 -275 305.68 -275 305 C-274.34 305 -273.68 305 -273 305 C-273 303.68 -273 302.36 -273 301 C-272.34 301 -271.68 301 -271 301 C-271 300.34 -271 299.68 -271 299 C-270.34 299 -269.68 299 -269 299 C-269 298.34 -269 297.68 -269 297 C-268.34 297 -267.68 297 -267 297 C-267 296.34 -267 295.68 -267 295 C-266.34 295 -265.68 295 -265 295 C-265 294.34 -265 293.68 -265 293 C-264.34 293 -263.68 293 -263 293 C-263 292.34 -263 291.68 -263 291 C-262.34 291 -261.68 291 -261 291 C-261 290.34 -261 289.68 -261 289 C-260.34 289 -259.68 289 -259 289 C-259 288.34 -259 287.68 -259 287 C-258.34 287 -257.68 287 -257 287 C-257 286.34 -257 285.68 -257 285 C-256.34 285 -255.68 285 -255 285 C-255 284.34 -255 283.68 -255 283 C-254.34 283 -253.68 283 -253 283 C-252.67 281.68 -252.34 280.36 -252 279 C-251.34 279 -250.68 279 -250 279 C-250 278.34 -250 277.68 -250 277 C-249.34 277 -248.68 277 -248 277 C-248 276.34 -248 275.68 -248 275 C-247.34 275 -246.68 275 -246 275 C-246 274.34 -246 273.68 -246 273 C-245.34 273 -244.68 273 -244 273 C-244 272.34 -244 271.68 -244 271 C-243.34 271 -242.68 271 -242 271 C-242 270.34 -242 269.68 -242 269 C-240.35 269 -238.7 269 -237 269 C-237 270.98 -237 272.96 -237 275 C-236.34 275 -235.68 275 -235 275 C-235 278.3 -235 281.6 -235 285 C-234.34 285 -233.68 285 -233 285 C-233 287.64 -233 290.28 -233 293 C-232.34 293 -231.68 293 -231 293 C-231 294.98 -231 296.96 -231 299 C-230.34 299 -229.68 299 -229 299 C-229 300.98 -229 302.96 -229 305 C-228.34 305 -227.68 305 -227 305 C-227 307.31 -227 309.62 -227 312 C-226.34 312 -225.68 312 -225 312 C-223.68373308 315.61973402 -223 318.09567131 -223 322 C-222.34 322 -221.68 322 -221 322 C-221 323.98 -221 325.96 -221 328 C-220.34 328 -219.68 328 -219 328 C-219 329.32 -219 330.64 -219 332 C-218.34 332 -217.68 332 -217 332 C-217 333.32 -217 334.64 -217 336 C-216.34 336 -215.68 336 -215 336 C-215 337.98 -215 339.96 -215 342 C-214.34 342 -213.68 342 -213 342 C-213 343.32 -213 344.64 -213 346 C-212.34 346 -211.68 346 -211 346 C-211 346.66 -211 347.32 -211 348 C-210.34 348 -209.68 348 -209 348 C-209 349.32 -209 350.64 -209 352 C-208.34 352 -207.68 352 -207 352 C-207 353.32 -207 354.64 -207 356 C-206.34 356 -205.68 356 -205 356 C-205 357.32 -205 358.64 -205 360 C-204.34 360 -203.68 360 -203 360 C-203 361.32 -203 362.64 -203 364 C-202.34 364 -201.68 364 -201 364 C-201 364.66 -201 365.32 -201 366 C-200.34 366 -199.68 366 -199 366 C-199 367.32 -199 368.64 -199 370 C-198.34 370 -197.68 370 -197 370 C-197 370.66 -197 371.32 -197 372 C-196.34 372 -195.68 372 -195 372 C-195 373.32 -195 374.64 -195 376 C-194.34 376 -193.68 376 -193 376 C-193 376.66 -193 377.32 -193 378 C-192.34 378 -191.68 378 -191 378 C-191 378.66 -191 379.32 -191 380 C-190.34 380 -189.68 380 -189 380 C-189 380.66 -189 381.32 -189 382 C-188.34 382 -187.68 382 -187 382 C-187 383.32 -187 384.64 -187 386 C-186.34 386 -185.68 386 -185 386 C-185 386.66 -185 387.32 -185 388 C-184.34 388 -183.68 388 -183 388 C-183 388.66 -183 389.32 -183 390 C-181.68 390 -180.36 390 -179 390 C-179 390.66 -179 391.32 -179 392 C-177.68 392 -176.36 392 -175 392 C-175 392.66 -175 393.32 -175 394 C-170.05 394 -165.1 394 -160 394 C-160 393.34 -160 392.68 -160 392 C-158.68 392 -157.36 392 -156 392 C-156 391.34 -156 390.68 -156 390 C-155.34 390 -154.68 390 -154 390 C-153.67 388.68 -153.34 387.36 -153 386 C-152.34 386 -151.68 386 -151 386 C-151 385.34 -151 384.68 -151 384 C-150.34 384 -149.68 384 -149 384 C-149 382.68 -149 381.36 -149 380 C-148.34 380 -147.68 380 -147 380 C-147 378.02 -147 376.04 -147 374 C-146.34 374 -145.68 374 -145 374 C-145 371.69 -145 369.38 -145 367 C-145.66 367 -146.32 367 -147 367 C-147 365.02 -147 363.04 -147 361 C-147.66 361 -148.32 361 -149 361 C-149 359.68 -149 358.36 -149 357 C-149.66 357 -150.32 357 -151 357 C-151 356.34 -151 355.68 -151 355 C-151.66 355 -152.32 355 -153 355 C-153.33 353.02 -153.66 351.04 -154 349 C-154.66 349 -155.32 349 -156 349 C-156 347.68 -156 346.36 -156 345 C-156.66 345 -157.32 345 -158 345 C-158 343.68 -158 342.36 -158 341 C-158.66 341 -159.32 341 -160 341 C-160 340.34 -160 339.68 -160 339 C-160.66 339 -161.32 339 -162 339 C-162 337.68 -162 336.36 -162 335 C-162.66 335 -163.32 335 -164 335 C-164 333.68 -164 332.36 -164 331 C-164.66 331 -165.32 331 -166 331 C-166 330.34 -166 329.68 -166 329 C-166.66 329 -167.32 329 -168 329 C-168 327.68 -168 326.36 -168 325 C-168.66 325 -169.32 325 -170 325 C-170 323.68 -170 322.36 -170 321 C-170.66 321 -171.32 321 -172 321 C-172 319.68 -172 318.36 -172 317 C-172.66 317 -173.32 317 -174 317 C-174 315.68 -174 314.36 -174 313 C-174.66 313 -175.32 313 -176 313 C-176 311.68 -176 310.36 -176 309 C-176.66 309 -177.32 309 -178 309 C-178 307.02 -178 305.04 -178 303 C-178.66 303 -179.32 303 -180 303 C-180 301.68 -180 300.36 -180 299 C-180.66 299 -181.32 299 -182 299 C-182 297.35 -182 295.7 -182 294 C-182.66 294 -183.32 294 -184 294 C-184 292.02 -184 290.04 -184 288 C-184.66 288 -185.32 288 -186 288 C-186 285.36 -186 282.72 -186 280 C-186.66 280 -187.32 280 -188 280 C-188 277.69 -188 275.38 -188 273 C-188.66 273 -189.32 273 -190 273 C-190 270.03 -190 267.06 -190 264 C-190.66 264 -191.32 264 -192 264 C-192 259.38 -192 254.76 -192 250 C-192.66 250 -193.32 250 -194 250 C-194 230.86 -194 211.72 -194 192 C-193.34 192 -192.68 192 -192 192 C-192 188.04 -192 184.08 -192 180 C-191.34 180 -190.68 180 -190 180 C-190 176.7 -190 173.4 -190 170 C-189.34 170 -188.68 170 -188 170 C-188 167.36 -188 164.72 -188 162 C-187.34 162 -186.68 162 -186 162 C-186 160.02 -186 158.04 -186 156 C-185.34 156 -184.68 156 -184 156 C-184 154.02 -184 152.04 -184 150 C-183.34 150 -182.68 150 -182 150 C-182 148.02 -182 146.04 -182 144 C-181.34 144 -180.68 144 -180 144 C-180 142.68 -180 141.36 -180 140 C-179.34 140 -178.68 140 -178 140 C-178 138.02 -178 136.04 -178 134 C-177.34 134 -176.68 134 -176 134 C-176 132.68 -176 131.36 -176 130 C-175.34 130 -174.68 130 -174 130 C-174 128.68 -174 127.36 -174 126 C-173.34 126 -172.68 126 -172 126 C-172 124.68 -172 123.36 -172 122 C-171.34 122 -170.68 122 -170 122 C-170 120.68 -170 119.36 -170 118 C-169.34 118 -168.68 118 -168 118 C-168 116.68 -168 115.36 -168 114 C-167.34 114 -166.68 114 -166 114 C-166 112.68 -166 111.36 -166 110 C-165.34 110 -164.68 110 -164 110 C-164 109.01 -164 108.02 -164 107 C-163.34 107 -162.68 107 -162 107 C-162 106.34 -162 105.68 -162 105 C-161.34 105 -160.68 105 -160 105 C-160 103.68 -160 102.36 -160 101 C-159.34 101 -158.68 101 -158 101 C-158 100.34 -158 99.68 -158 99 C-157.34 99 -156.68 99 -156 99 C-156 97.68 -156 96.36 -156 95 C-155.34 95 -154.68 95 -154 95 C-153.67 93.02 -153.34 91.04 -153 89 C-152.34 89 -151.68 89 -151 89 C-151 88.34 -151 87.68 -151 87 C-150.34 87 -149.68 87 -149 87 C-148.34 85.02 -147.68 83.04 -147 81 C-146.34 81 -145.68 81 -145 81 C-145 80.34 -145 79.68 -145 79 C-144.34 79 -143.68 79 -143 79 C-143 78.34 -143 77.68 -143 77 C-142.34 77 -141.68 77 -141 77 C-141 76.34 -141 75.68 -141 75 C-140.34 75 -139.68 75 -139 75 C-139 74.34 -139 73.68 -139 73 C-138.34 73 -137.68 73 -137 73 C-137 72.34 -137 71.68 -137 71 C-136.34 71 -135.68 71 -135 71 C-135 70.34 -135 69.68 -135 69 C-134.34 69 -133.68 69 -133 69 C-133 67.68 -133 66.36 -133 65 C-132.34 65 -131.68 65 -131 65 C-131 64.34 -131 63.68 -131 63 C-130.34 63 -129.68 63 -129 63 C-129 62.34 -129 61.68 -129 61 C-127.68 61 -126.36 61 -125 61 C-125 60.34 -125 59.68 -125 59 C-124.34 59 -123.68 59 -123 59 C-123 58.34 -123 57.68 -123 57 C-122.34 57 -121.68 57 -121 57 C-121 56.34 -121 55.68 -121 55 C-120.34 55 -119.68 55 -119 55 C-119 54.34 -119 53.68 -119 53 C-118.34 53 -117.68 53 -117 53 C-117 52.34 -117 51.68 -117 51 C-116.34 51 -115.68 51 -115 51 C-115 50.34 -115 49.68 -115 49 C-114.34 49 -113.68 49 -113 49 C-113 48.34 -113 47.68 -113 47 C-112.34 47 -111.68 47 -111 47 C-111 46.34 -111 45.68 -111 45 C-109.68 45 -108.36 45 -107 45 C-107 44.34 -107 43.68 -107 43 C-106.34 43 -105.68 43 -105 43 C-105 42.34 -105 41.68 -105 41 C-103.02 40.34 -101.04 39.68 -99 39 C-99 38.34 -99 37.68 -99 37 C-96 35 -96 35 -93 35 C-93 34.34 -93 33.68 -93 33 C-91.68 33 -90.36 33 -89 33 C-89 32.34 -89 31.68 -89 31 C-88.34 31 -87.68 31 -87 31 C-87 30.34 -87 29.68 -87 29 C-85.68 29 -84.36 29 -83 29 C-83 28.34 -83 27.68 -83 27 C-81.68 27 -80.36 27 -79 27 C-79 26.34 -79 25.68 -79 25 C-77.68 25 -76.36 25 -75 25 C-75 24.34 -75 23.68 -75 23 C-74.34 23 -73.68 23 -73 23 C-73 22.34 -73 21.68 -73 21 C-71.68 21 -70.36 21 -69 21 C-69 20.34 -69 19.68 -69 19 C-65.38026598 17.68373308 -62.90432869 17 -59 17 C-59 16.34 -59 15.68 -59 15 C-57.68 15 -56.36 15 -55 15 C-55 14.34 -55 13.68 -55 13 C-43.47835991 9.55580866 -43.47835991 9.55580866 -38 10 C-38 9.34 -38 8.68 -38 8 C-36.02 8 -34.04 8 -32 8 C-32 7.34 -32 6.68 -32 6 C-28.7 6 -25.4 6 -22 6 C-22 5.34 -22 4.68 -22 4 C-18.7 4 -15.4 4 -12 4 C-12 3.34 -12 2.68 -12 2 C-8.04 2 -4.08 2 0 2 C0 1.34 0 0.68 0 0 Z " fill="#FAFEE3" transform="translate(556,95)"/>
<path d="M0 0 C13.86 0 27.72 0 42 0 C42 0.66 42 1.32 42 2 C45.3 2 48.6 2 52 2 C52 2.66 52 3.32 52 4 C54.64 4 57.28 4 60 4 C60 4.66 60 5.32 60 6 C61.32 6 62.64 6 64 6 C64 6.66 64 7.32 64 8 C65.98 8 67.96 8 70 8 C70 8.66 70 9.32 70 10 C71.32 10 72.64 10 74 10 C74 10.66 74 11.32 74 12 C75.32 12 76.64 12 78 12 C78 12.66 78 13.32 78 14 C79.32 14 80.64 14 82 14 C82 14.66 82 15.32 82 16 C82.61875 16.144375 83.2375 16.28875 83.875 16.4375 C86 17 86 17 88 18 C88 18.66 88 19.32 88 20 C89.32 20 90.64 20 92 20 C92 20.66 92 21.32 92 22 C92.66 22 93.32 22 94 22 C94 22.66 94 23.32 94 24 C95.98 24.66 97.96 25.32 100 26 C100 26.66 100 27.32 100 28 C100.66 28 101.32 28 102 28 C102 28.66 102 29.32 102 30 C102.66 30 103.32 30 104 30 C104 30.66 104 31.32 104 32 C104.66 32 105.32 32 106 32 C106 32.66 106 33.32 106 34 C106.66 34 107.32 34 108 34 C108 34.66 108 35.32 108 36 C108.66 36 109.32 36 110 36 C110 36.66 110 37.32 110 38 C110.66 38 111.32 38 112 38 C112.33 39.32 112.66 40.64 113 42 C113.66 42 114.32 42 115 42 C115 42.66 115 43.32 115 44 C115.66 44 116.32 44 117 44 C117 44.66 117 45.32 117 46 C117.66 46 118.32 46 119 46 C119 47.32 119 48.64 119 50 C119.66 50 120.32 50 121 50 C121 50.66 121 51.32 121 52 C121.66 52 122.32 52 123 52 C123 53.32 123 54.64 123 56 C123.66 56 124.32 56 125 56 C125 56.66 125 57.32 125 58 C125.66 58 126.32 58 127 58 C127 59.32 127 60.64 127 62 C127.66 62 128.32 62 129 62 C129 63.32 129 64.64 129 66 C129.66 66 130.32 66 131 66 C131 67.32 131 68.64 131 70 C131.66 70 132.32 70 133 70 C133 71.32 133 72.64 133 74 C133.66 74 134.32 74 135 74 C135 75.32 135 76.64 135 78 C135.66 78 136.32 78 137 78 C137 79.98 137 81.96 137 84 C137.66 84 138.32 84 139 84 C139 86.31 139 88.62 139 91 C139.66 91 140.32 91 141 91 C141 94.3 141 97.6 141 101 C141.66 101 142.32 101 143 101 C143 114.53 143 128.06 143 142 C142.34 142 141.68 142 141 142 C141 145.3 141 148.6 141 152 C140.34 152 139.68 152 139 152 C139 154.64 139 157.28 139 160 C138.34 160 137.68 160 137 160 C137 161.98 137 163.96 137 166 C136.34 166 135.68 166 135 166 C135 167.32 135 168.64 135 170 C134.34 170 133.68 170 133 170 C133 171.32 133 172.64 133 174 C132.34 174 131.68 174 131 174 C131 175.65 131 177.3 131 179 C130.34 179 129.68 179 129 179 C129 179.66 129 180.32 129 181 C128.34 181 127.68 181 127 181 C127 182.32 127 183.64 127 185 C126.34 185 125.68 185 125 185 C125 186.32 125 187.64 125 189 C124.34 189 123.68 189 123 189 C123 189.66 123 190.32 123 191 C122.34 191 121.68 191 121 191 C121 191.66 121 192.32 121 193 C120.34 193 119.68 193 119 193 C119 194.32 119 195.64 119 197 C118.34 197 117.68 197 117 197 C117 197.66 117 198.32 117 199 C116.34 199 115.68 199 115 199 C115 199.66 115 200.32 115 201 C114.34 201 113.68 201 113 201 C112.67 202.32 112.34 203.64 112 205 C111.34 205 110.68 205 110 205 C110 205.66 110 206.32 110 207 C109.34 207 108.68 207 108 207 C108 207.66 108 208.32 108 209 C107.34 209 106.68 209 106 209 C106 209.66 106 210.32 106 211 C105.34 211 104.68 211 104 211 C104 211.66 104 212.32 104 213 C103.34 213 102.68 213 102 213 C102 213.66 102 214.32 102 215 C101.34 215 100.68 215 100 215 C100 215.66 100 216.32 100 217 C99.34 217 98.68 217 98 217 C98 217.66 98 218.32 98 219 C96.54293274 219.50367757 95.08429904 220.00282556 93.625 220.5 C92.40683594 220.91765625 92.40683594 220.91765625 91.1640625 221.34375 C89 222 89 222 87 222 C87 222.99 87 223.98 87 225 C86.01 225 85.02 225 84 225 C84 225.66 84 226.32 84 227 C79.9811485 228.81242323 76.38889325 230.33501617 72 231 C72 231.66 72 232.32 72 233 C56.38438567 238.31143345 56.38438567 238.31143345 50 238 C50 238.66 50 239.32 50 240 C41.03669493 242.34268201 32.31646555 242.27253867 23.12011719 242.20581055 C20.47841919 242.18734918 17.83706883 242.18530272 15.1953125 242.18554688 C13.51562195 242.18063801 11.83593378 242.17481247 10.15625 242.16796875 C9.3667395 242.16685593 8.577229 242.1657431 7.76379395 242.16459656 C2.23229008 242.11614504 2.23229008 242.11614504 0 241 C-1.70363822 240.77377919 -3.41328701 240.59111527 -5.125 240.4375 C-6.03507813 240.35371094 -6.94515625 240.26992188 -7.8828125 240.18359375 C-8.58148437 240.12300781 -9.28015625 240.06242188 -10 240 C-10 239.34 -10 238.68 -10 238 C-10.721875 238.04125 -11.44375 238.0825 -12.1875 238.125 C-15.27240571 237.98789308 -17.14623104 237.14806797 -20 236 C-22.09578246 235.42674959 -24.2005737 234.88557559 -26.3125 234.375 C-27.38113281 234.11460937 -28.44976563 233.85421875 -29.55078125 233.5859375 C-30.35902344 233.39257812 -31.16726563 233.19921875 -32 233 C-32 232.34 -32 231.68 -32 231 C-32.5775 230.855625 -33.155 230.71125 -33.75 230.5625 C-36.875 229.78125 -36.875 229.78125 -40 229 C-40 228.34 -40 227.68 -40 227 C-40.99 227 -41.98 227 -43 227 C-43 226.34 -43 225.68 -43 225 C-44.32 225 -45.64 225 -47 225 C-47 224.34 -47 223.68 -47 223 C-47.66 223 -48.32 223 -49 223 C-49 222.34 -49 221.68 -49 221 C-49.66 221 -50.32 221 -51 221 C-51 220.34 -51 219.68 -51 219 C-52.32 219 -53.64 219 -55 219 C-55 218.34 -55 217.68 -55 217 C-55.66 217 -56.32 217 -57 217 C-57 216.34 -57 215.68 -57 215 C-57.66 215 -58.32 215 -59 215 C-59 214.34 -59 213.68 -59 213 C-59.66 213 -60.32 213 -61 213 C-61 212.34 -61 211.68 -61 211 C-61.66 211 -62.32 211 -63 211 C-63 210.34 -63 209.68 -63 209 C-63.66 209 -64.32 209 -65 209 C-65 208.34 -65 207.68 -65 207 C-65.66 207 -66.32 207 -67 207 C-67 206.34 -67 205.68 -67 205 C-67.66 205 -68.32 205 -69 205 C-69 204.34 -69 203.68 -69 203 C-69.66 203 -70.32 203 -71 203 C-71 202.34 -71 201.68 -71 201 C-71.66 201 -72.32 201 -73 201 C-73 200.34 -73 199.68 -73 199 C-73.66 199 -74.32 199 -75 199 C-75 198.34 -75 197.68 -75 197 C-75.66 197 -76.32 197 -77 197 C-77 195.68 -77 194.36 -77 193 C-77.66 193 -78.32 193 -79 193 C-79 192.34 -79 191.68 -79 191 C-79.66 191 -80.32 191 -81 191 C-81 190.34 -81 189.68 -81 189 C-81.66 189 -82.32 189 -83 189 C-83 187.68 -83 186.36 -83 185 C-83.66 185 -84.32 185 -85 185 C-85 183.68 -85 182.36 -85 181 C-85.66 181 -86.32 181 -87 181 C-87 180.34 -87 179.68 -87 179 C-87.66 179 -88.32 179 -89 179 C-89 177.68 -89 176.36 -89 175 C-89.66 175 -90.32 175 -91 175 C-91 173.02 -91 171.04 -91 169 C-91.66 169 -92.32 169 -93 169 C-93 167.68 -93 166.36 -93 165 C-93.66 165 -94.32 165 -95 165 C-95 163.02 -95 161.04 -95 159 C-95.66 159 -96.32 159 -97 159 C-97 157.02 -97 155.04 -97 153 C-97.66 153 -98.32 153 -99 153 C-99 150.36 -99 147.72 -99 145 C-99.66 145 -100.32 145 -101 145 C-101 141.04 -101 137.08 -101 133 C-101.66 133 -102.32 133 -103 133 C-103 124.75 -103 116.5 -103 108 C-102.34 108 -101.68 108 -101 108 C-101 104.7 -101 101.4 -101 98 C-100.34 98 -99.68 98 -99 98 C-99 95.36 -99 92.72 -99 90 C-98.34 90 -97.68 90 -97 90 C-97 88.02 -97 86.04 -97 84 C-96.34 84 -95.68 84 -95 84 C-95 82.02 -95 80.04 -95 78 C-94.34 78 -93.68 78 -93 78 C-93 76.68 -93 75.36 -93 74 C-92.34 74 -91.68 74 -91 74 C-91 72.68 -91 71.36 -91 70 C-90.34 70 -89.68 70 -89 70 C-89 68.68 -89 67.36 -89 66 C-88.34 66 -87.68 66 -87 66 C-87 64.68 -87 63.36 -87 62 C-86.34 62 -85.68 62 -85 62 C-85 60.68 -85 59.36 -85 58 C-84.34 58 -83.68 58 -83 58 C-83 57.34 -83 56.68 -83 56 C-82.34 56 -81.68 56 -81 56 C-81 54.68 -81 53.36 -81 52 C-80.34 52 -79.68 52 -79 52 C-79 51.34 -79 50.68 -79 50 C-78.34 50 -77.68 50 -77 50 C-77 49.34 -77 48.68 -77 48 C-76.34 48 -75.68 48 -75 48 C-75 46.68 -75 45.36 -75 44 C-74.34 44 -73.68 44 -73 44 C-73 43.34 -73 42.68 -73 42 C-72.34 42 -71.68 42 -71 42 C-71 41.34 -71 40.68 -71 40 C-69.02 39.505 -69.02 39.505 -67 39 C-67 38.34 -67 37.68 -67 37 C-66.34 37 -65.68 37 -65 37 C-65 36.01 -65 35.02 -65 34 C-64.34 34 -63.68 34 -63 34 C-63 33.34 -63 32.68 -63 32 C-62.34 32 -61.68 32 -61 32 C-61 31.34 -61 30.68 -61 30 C-60.34 30 -59.68 30 -59 30 C-59 29.34 -59 28.68 -59 28 C-57.25278326 26.78746664 -55.45052126 25.65358918 -53.625 24.5625 C-49.21114323 21.93727056 -49.21114323 21.93727056 -46 18 C-45.34 18 -44.68 18 -44 18 C-44 17.34 -44 16.68 -44 16 C-42.2335343 14.9923048 -40.46166177 13.99408286 -38.6875 13 C-37.20830078 12.1646875 -37.20830078 12.1646875 -35.69921875 11.3125 C-33 10 -33 10 -30 10 C-30 9.34 -30 8.68 -30 8 C-28.02 8 -26.04 8 -24 8 C-24 7.34 -24 6.68 -24 6 C-22.02 6 -20.04 6 -18 6 C-18 5.34 -18 4.68 -18 4 C-15.36 4 -12.72 4 -10 4 C-10 3.34 -10 2.68 -10 2 C-6.7 2 -3.4 2 0 2 C0 1.34 0 0.68 0 0 Z " fill="#69863E" transform="translate(673,213)"/>
<path d="M0 0 C4.62 0 9.24 0 14 0 C14 0.66 14 1.32 14 2 C15.98 2.66 17.96 3.32 20 4 C20 4.66 20 5.32 20 6 C21.32 6.33 22.64 6.66 24 7 C24 7.99 24 8.98 24 10 C24.66 10 25.32 10 26 10 C26 10.99 26 11.98 26 13 C26.66 13 27.32 13 28 13 C28 13.66 28 14.32 28 15 C28.66 15 29.32 15 30 15 C30 17.64 30 20.28 30 23 C30.66 23 31.32 23 32 23 C33.98960773 26.3183077 34.2361745 28.79959699 34.1953125 32.640625 C34.18886719 33.71054687 34.18242188 34.78046875 34.17578125 35.8828125 C34.15902344 36.99398437 34.14226563 38.10515625 34.125 39.25 C34.11597656 40.37664063 34.10695313 41.50328125 34.09765625 42.6640625 C34.07410658 45.44292365 34.0412168 48.2213539 34 51 C33.34 51 32.68 51 32 51 C32 52.32 32 53.64 32 55 C31.34 55 30.68 55 30 55 C30 56.32 30 57.64 30 59 C29.34 59 28.68 59 28 59 C28 60.32 28 61.64 28 63 C27.34 63 26.68 63 26 63 C26 63.66 26 64.32 26 65 C25.34 65 24.68 65 24 65 C24 65.66 24 66.32 24 67 C23.34 67 22.68 67 22 67 C22 67.66 22 68.32 22 69 C20.02 69 18.04 69 16 69 C16 69.66 16 70.32 16 71 C12.7 71 9.4 71 6 71 C6 70.34 6 69.68 6 69 C4.68 69 3.36 69 2 69 C2 68.34 2 67.68 2 67 C1.34 67 0.68 67 0 67 C0 66.34 0 65.68 0 65 C-1.32 65 -2.64 65 -4 65 C-4 63.68 -4 62.36 -4 61 C-4.66 61 -5.32 61 -6 61 C-6 60.34 -6 59.68 -6 59 C-6.66 59 -7.32 59 -8 59 C-8 57.68 -8 56.36 -8 55 C-8.66 55 -9.32 55 -10 55 C-10 53.68 -10 52.36 -10 51 C-10.66 51 -11.32 51 -12 51 C-13.59138085 46.82262526 -14.21278058 43.46839215 -14 39 C-14.66 39 -15.32 39 -16 39 C-16 30.75 -16 22.5 -16 14 C-15.34 14 -14.68 14 -14 14 C-14 13.34 -14 12.68 -14 12 C-13.34 12 -12.68 12 -12 12 C-12 10.68 -12 9.36 -12 8 C-11.34 8 -10.68 8 -10 8 C-10 7.34 -10 6.68 -10 6 C-9.34 6 -8.68 6 -8 6 C-8 5.34 -8 4.68 -8 4 C-7.34 4 -6.68 4 -6 4 C-6 3.34 -6 2.68 -6 2 C-4.02 2 -2.04 2 0 2 C0 1.34 0 0.68 0 0 Z " fill="#104128" transform="translate(487,622)"/>
<path d="M0 0 C0.74958984 0.00902344 1.49917969 0.01804687 2.27148438 0.02734375 C4.11862654 0.05087422 5.96560412 0.08674439 7.8125 0.125 C7.8125 0.785 7.8125 1.445 7.8125 2.125 C8.4725 2.125 9.1325 2.125 9.8125 2.125 C9.8125 2.785 9.8125 3.445 9.8125 4.125 C10.4725 4.125 11.1325 4.125 11.8125 4.125 C11.8125 4.785 11.8125 5.445 11.8125 6.125 C12.4725 6.125 13.1325 6.125 13.8125 6.125 C13.8125 6.785 13.8125 7.445 13.8125 8.125 C14.4725 8.125 15.1325 8.125 15.8125 8.125 C15.8125 8.785 15.8125 9.445 15.8125 10.125 C16.4725 10.125 17.1325 10.125 17.8125 10.125 C17.8125 10.785 17.8125 11.445 17.8125 12.125 C18.4725 12.125 19.1325 12.125 19.8125 12.125 C19.8125 14.105 19.8125 16.085 19.8125 18.125 C20.4725 18.125 21.1325 18.125 21.8125 18.125 C21.8125 18.785 21.8125 19.445 21.8125 20.125 C22.4725 20.125 23.1325 20.125 23.8125 20.125 C23.83715881 24.09430989 23.85534023 28.06359034 23.86743164 32.03295898 C23.87247057 33.38420386 23.87930177 34.73544326 23.88793945 36.08666992 C23.90002419 38.02520434 23.90519828 39.963778 23.91015625 41.90234375 C23.91539307 43.07015381 23.92062988 44.23796387 23.92602539 45.44116211 C23.8125 48.125 23.8125 48.125 22.8125 49.125 C22.668125 50.23875 22.52375 51.3525 22.375 52.5 C21.8125 56.125 21.8125 56.125 19.8125 59.125 C19.1525 59.125 18.4925 59.125 17.8125 59.125 C17.8125 60.445 17.8125 61.765 17.8125 63.125 C17.1525 63.125 16.4925 63.125 15.8125 63.125 C15.8125 63.785 15.8125 64.445 15.8125 65.125 C15.1525 65.125 14.4925 65.125 13.8125 65.125 C13.8125 65.785 13.8125 66.445 13.8125 67.125 C10.8125 69.125 10.8125 69.125 7.8125 69.125 C7.8125 69.785 7.8125 70.445 7.8125 71.125 C3.8525 71.125 -0.1075 71.125 -4.1875 71.125 C-4.1875 70.465 -4.1875 69.805 -4.1875 69.125 C-5.1775 69.125 -6.1675 69.125 -7.1875 69.125 C-7.1875 68.465 -7.1875 67.805 -7.1875 67.125 C-8.5075 67.125 -9.8275 67.125 -11.1875 67.125 C-11.1875 66.465 -11.1875 65.805 -11.1875 65.125 C-11.8475 65.125 -12.5075 65.125 -13.1875 65.125 C-13.1875 64.465 -13.1875 63.805 -13.1875 63.125 C-13.8475 63.125 -14.5075 63.125 -15.1875 63.125 C-15.1875 61.805 -15.1875 60.485 -15.1875 59.125 C-16.1775 59.125 -17.1675 59.125 -18.1875 59.125 C-18.5175 57.805 -18.8475 56.485 -19.1875 55.125 C-19.8475 55.125 -20.5075 55.125 -21.1875 55.125 C-21.1875 53.145 -21.1875 51.165 -21.1875 49.125 C-21.8475 49.125 -22.5075 49.125 -23.1875 49.125 C-23.1875 40.215 -23.1875 31.305 -23.1875 22.125 C-22.5275 22.125 -21.8675 22.125 -21.1875 22.125 C-21.1875 19.485 -21.1875 16.845 -21.1875 14.125 C-20.5275 14.125 -19.8675 14.125 -19.1875 14.125 C-19.1875 13.465 -19.1875 12.805 -19.1875 12.125 C-18.5275 12.125 -17.8675 12.125 -17.1875 12.125 C-17.1875 10.805 -17.1875 9.485 -17.1875 8.125 C-16.5275 8.125 -15.8675 8.125 -15.1875 8.125 C-15.1875 7.465 -15.1875 6.805 -15.1875 6.125 C-14.5275 6.125 -13.8675 6.125 -13.1875 6.125 C-13.1875 5.465 -13.1875 4.805 -13.1875 4.125 C-12.5275 4.125 -11.8675 4.125 -11.1875 4.125 C-11.1875 3.465 -11.1875 2.805 -11.1875 2.125 C-7.39586973 -0.40275351 -4.37875969 -0.09943035 0 0 Z " fill="#0F4027" transform="translate(643.1875,605.875)"/>
<path d="M0 0 C11.52164009 -0.18451025 11.52164009 -0.18451025 17 1 C17 1.66 17 2.32 17 3 C18.98 3 20.96 3 23 3 C23 4.32 23 5.64 23 7 C24.32 7 25.64 7 27 7 C27 8.32 27 9.64 27 11 C27.66 11 28.32 11 29 11 C29 12.32 29 13.64 29 15 C29.66 15 30.32 15 31 15 C31 16.98 31 18.96 31 21 C31.66 21 32.32 21 33 21 C33 26.94 33 32.88 33 39 C32.34 39 31.68 39 31 39 C31 40.32 31 41.64 31 43 C30.34 43 29.68 43 29 43 C29 44.32 29 45.64 29 47 C28.34 47 27.68 47 27 47 C27 47.66 27 48.32 27 49 C26.34 49 25.68 49 25 49 C25 49.66 25 50.32 25 51 C23.68 51 22.36 51 21 51 C21 51.66 21 52.32 21 53 C20.34 53 19.68 53 19 53 C19 53.66 19 54.32 19 55 C17.68 55 16.36 55 15 55 C15 55.66 15 56.32 15 57 C8.07 57 1.14 57 -6 57 C-6 56.34 -6 55.68 -6 55 C-6.99 55 -7.98 55 -9 55 C-9 54.34 -9 53.68 -9 53 C-9.99 53 -10.98 53 -12 53 C-12 52.34 -12 51.68 -12 51 C-12.66 51 -13.32 51 -14 51 C-14 50.34 -14 49.68 -14 49 C-14.66 49 -15.32 49 -16 49 C-16 48.34 -16 47.68 -16 47 C-16.66 47 -17.32 47 -18 47 C-18 45.68 -18 44.36 -18 43 C-18.66 43 -19.32 43 -20 43 C-20 41.68 -20 40.36 -20 39 C-20.66 39 -21.32 39 -22 39 C-22 31.74 -22 24.48 -22 17 C-21.34 17 -20.68 17 -20 17 C-20 15.68 -20 14.36 -20 13 C-19.34 13 -18.68 13 -18 13 C-18 12.34 -18 11.68 -18 11 C-17.34 11 -16.68 11 -16 11 C-16 9.68 -16 8.36 -16 7 C-14.68 7 -13.36 7 -12 7 C-11.67 6.01 -11.34 5.02 -11 4 C-9.35 4 -7.7 4 -6 4 C-6 3.34 -6 2.68 -6 2 C-4.02 2 -2.04 2 0 2 C0 1.34 0 0.68 0 0 Z " fill="#708E46" transform="translate(537,347)"/>
<path d="M0 0 C2.64 0 5.28 0 8 0 C8 0.66 8 1.32 8 2 C9.32 2 10.64 2 12 2 C12 3.32 12 4.64 12 6 C12.66 6 13.32 6 14 6 C16.27141454 11.39460953 16.20413361 16.26157749 16 22 C16.66 22 17.32 22 18 22 C18 23.32 18 24.64 18 26 C18.66 26 19.32 26 20 26 C20 26.66 20 27.32 20 28 C20.66 28 21.32 28 22 28 C22 28.66 22 29.32 22 30 C22.66 30 23.32 30 24 30 C24 30.66 24 31.32 24 32 C24.94875 32.144375 25.8975 32.28875 26.875 32.4375 C30 33 30 33 32 34 C32 34.66 32 35.32 32 36 C40.58 36 49.16 36 58 36 C58 35.34 58 34.68 58 34 C58.66 34 59.32 34 60 34 C60 33.34 60 32.68 60 32 C63.08809695 30.23537317 64.23312136 30 68 30 C68 29.34 68 28.68 68 28 C68.66 28 69.32 28 70 28 C70 27.34 70 26.68 70 26 C70.66 26 71.32 26 72 26 C72 25.34 72 24.68 72 24 C72.66 24 73.32 24 74 24 C74 22.68 74 21.36 74 20 C74.66 20 75.32 20 76 20 C75.95875 19.13375 75.9175 18.2675 75.875 17.375 C76.00457721 13.87641532 76.76019656 11.25448403 78 8 C78.66 8 79.32 8 80 8 C80 7.34 80 6.68 80 6 C83.96 6 87.92 6 92 6 C92 6.66 92 7.32 92 8 C92.66 8 93.32 8 94 8 C94 12.62 94 17.24 94 22 C93.34 22 92.68 22 92 22 C92 23.32 92 24.64 92 26 C91.34 26 90.68 26 90 26 C90 26.66 90 27.32 90 28 C89.34 28 88.68 28 88 28 C87.34 29.98 86.68 31.96 86 34 C85.34 34 84.68 34 84 34 C84 34.66 84 35.32 84 36 C83.34 36 82.68 36 82 36 C82 36.66 82 37.32 82 38 C81.34 38 80.68 38 80 38 C80 38.66 80 39.32 80 40 C79.34 40 78.68 40 78 40 C78 40.66 78 41.32 78 42 C76.71086513 42.67154933 75.41859796 43.33708859 74.125 44 C73.40570312 44.37125 72.68640625 44.7425 71.9453125 45.125 C70 46 70 46 68 46 C68 46.66 68 47.32 68 48 C60.29451294 51.80828463 53.65453202 52.61971273 45.125 52.5 C43.48337891 52.52320313 43.48337891 52.52320313 41.80859375 52.546875 C33.90035886 52.50943957 27.33721292 50.90772871 20 48 C20 47.01 20 46.02 20 45 C16.535 44.505 16.535 44.505 13 44 C13 44.66 13 45.32 13 46 C5.75601499 50.48742434 -0.46901072 52.18833428 -9 51 C-11.3515625 49.97265625 -11.3515625 49.97265625 -13 49 C-13.08086147 47.20906809 -13.13912702 45.41710372 -13.1875 43.625 C-13.22230469 42.62726562 -13.25710938 41.62953125 -13.29296875 40.6015625 C-13.19628906 39.74304688 -13.09960938 38.88453125 -13 38 C-9.68629 35.79086 -8.6553979 35.77518447 -4.8125 35.875 C-3.91144531 35.89304687 -3.01039063 35.91109375 -2.08203125 35.9296875 C-1.39496094 35.95289063 -0.70789063 35.97609375 0 36 C2.309417 27.50730521 0.93611097 17.87222193 -3 10 C-3.23076923 4.46153846 -3.23076923 4.46153846 -2 2 C-1.34 2 -0.68 2 0 2 C0 1.34 0 0.68 0 0 Z " fill="#104128" transform="translate(538,693)"/>
<path d="M0 0 C2.97 0 5.94 0 9 0 C9 0.66 9 1.32 9 2 C10.98 2 12.96 2 15 2 C15 2.66 15 3.32 15 4 C16.32 4 17.64 4 19 4 C19 4.66 19 5.32 19 6 C19.66 6 20.32 6 21 6 C21 6.66 21 7.32 21 8 C21.66 8 22.32 8 23 8 C23 8.66 23 9.32 23 10 C23.66 10 24.32 10 25 10 C25 11.32 25 12.64 25 14 C25.66 14 26.32 14 27 14 C27 15.98 27 17.96 27 20 C27.66 20 28.32 20 29 20 C29 23.63 29 27.26 29 31 C28.34 31 27.68 31 27 31 C27 32.98 27 34.96 27 37 C26.34 37 25.68 37 25 37 C25 37.99 25 38.98 25 40 C24.34 40 23.68 40 23 40 C23 40.99 23 41.98 23 43 C21.68 43 20.36 43 19 43 C19 43.66 19 44.32 19 45 C18.34 45 17.68 45 17 45 C17 45.66 17 46.32 17 47 C15.68 47 14.36 47 13 47 C13 47.66 13 48.32 13 49 C6.73 49 0.46 49 -6 49 C-6 48.34 -6 47.68 -6 47 C-6.61875 46.855625 -7.2375 46.71125 -7.875 46.5625 C-10 46 -10 46 -12 45 C-12 44.34 -12 43.68 -12 43 C-12.66 43 -13.32 43 -14 43 C-14 42.34 -14 41.68 -14 41 C-14.66 41 -15.32 41 -16 41 C-16.33 38.36 -16.66 35.72 -17 33 C-17.66 33 -18.32 33 -19 33 C-19 27.39 -19 21.78 -19 16 C-18.34 16 -17.68 16 -17 16 C-16.9071875 14.6696875 -16.9071875 14.6696875 -16.8125 13.3125 C-15.78837713 9.13722984 -14.29614561 7.71016417 -11 5 C-7.16880109 2.68531733 -4.48600022 1.60417645 0 2 C0 1.34 0 0.68 0 0 Z " fill="#6C8A41" transform="translate(815,417)"/>
<path d="M0 0 C1.98 0 3.96 0 6 0 C6 0.66 6 1.32 6 2 C6.66 2 7.32 2 8 2 C8 2.66 8 3.32 8 4 C9.32 4 10.64 4 12 4 C12 5.32 12 6.64 12 8 C12.66 8 13.32 8 14 8 C14 8.66 14 9.32 14 10 C14.66 10 15.32 10 16 10 C16 11.32 16 12.64 16 14 C16.66 14 17.32 14 18 14 C18 15.98 18 17.96 18 20 C18.66 20 19.32 20 20 20 C20 21.32 20 22.64 20 24 C20.66 24 21.32 24 22 24 C22.05534912 24.62567871 22.11069824 25.25135742 22.16772461 25.89599609 C22.42013899 28.72272197 22.67874193 31.54884807 22.9375 34.375 C23.06801758 35.85226562 23.06801758 35.85226562 23.20117188 37.359375 C23.33168945 38.77089844 23.33168945 38.77089844 23.46484375 40.2109375 C23.543396 41.08024902 23.62194824 41.94956055 23.70288086 42.84521484 C23.88877834 45.04492916 23.88877834 45.04492916 25 47 C25.06996014 48.70702735 25.08440154 50.41668003 25.0625 52.125 C25.05347656 53.03507812 25.04445313 53.94515625 25.03515625 54.8828125 C25.02355469 55.58148438 25.01195312 56.28015625 25 57 C23.35 57 21.7 57 20 57 C20 56.34 20 55.68 20 55 C19.34 55 18.68 55 18 55 C18 52.36 18 49.72 18 47 C17.34 47 16.68 47 16 47 C15.505 44.525 15.505 44.525 15 42 C8.73 41.34 2.46 40.68 -4 40 C-4 40.99 -4 41.98 -4 43 C-4.66 43 -5.32 43 -6 43 C-6 45.64 -6 48.28 -6 51 C-6.66 51 -7.32 51 -8 51 C-8 52.32 -8 53.64 -8 55 C-8.66 55 -9.32 55 -10 55 C-10 55.66 -10 56.32 -10 57 C-11.98 57 -13.96 57 -16 57 C-16 53.37 -16 49.74 -16 46 C-15.34 46 -14.68 46 -14 46 C-14 44.02 -14 42.04 -14 40 C-13.34 40 -12.68 40 -12 40 C-12 36.7 -12 33.4 -12 30 C-11.34 30 -10.68 30 -10 30 C-10 27.36 -10 24.72 -10 22 C-9.34 22 -8.68 22 -8 22 C-8 20.02 -8 18.04 -8 16 C-7.34 16 -6.68 16 -6 16 C-6 14.68 -6 13.36 -6 12 C-5.34 12 -4.68 12 -4 12 C-4 10.68 -4 9.36 -4 8 C-3.34 8 -2.68 8 -2 8 C-2 6.68 -2 5.36 -2 4 C-1.34 4 -0.68 4 0 4 C0 2.68 0 1.36 0 0 Z " fill="#F2F8DA" transform="translate(715,305)"/>
<path d="M0 0 C1.98 0 3.96 0 6 0 C6 0.66 6 1.32 6 2 C6.66 2 7.32 2 8 2 C8 9.59 8 17.18 8 25 C9.98 24.67 11.96 24.34 14 24 C14 23.34 14 22.68 14 22 C14.66 22 15.32 22 16 22 C16 21.34 16 20.68 16 20 C16.66 20 17.32 20 18 20 C18 19.34 18 18.68 18 18 C18.66 18 19.32 18 20 18 C20 17.34 20 16.68 20 16 C20.66 16 21.32 16 22 16 C22 15.34 22 14.68 22 14 C22.66 14 23.32 14 24 14 C24 13.34 24 12.68 24 12 C25.32 12 26.64 12 28 12 C28 11.34 28 10.68 28 10 C28.66 10 29.32 10 30 10 C30 9.34 30 8.68 30 8 C30.66 8 31.32 8 32 8 C32 7.34 32 6.68 32 6 C32.66 6 33.32 6 34 6 C34 5.34 34 4.68 34 4 C34.66 4 35.32 4 36 4 C36 3.34 36 2.68 36 2 C36.66 2 37.32 2 38 2 C38 1.34 38 0.68 38 0 C39.98 0 41.96 0 44 0 C44 2.64 44 5.28 44 8 C43.34 8 42.68 8 42 8 C42 8.66 42 9.32 42 10 C41.34 10 40.68 10 40 10 C40 10.66 40 11.32 40 12 C39.34 12 38.68 12 38 12 C38 12.66 38 13.32 38 14 C37.34 14 36.68 14 36 14 C36 14.66 36 15.32 36 16 C34.68 16 33.36 16 32 16 C32 16.66 32 17.32 32 18 C31.34 18 30.68 18 30 18 C30 18.66 30 19.32 30 20 C29.34 20 28.68 20 28 20 C28 20.66 28 21.32 28 22 C27.34 22 26.68 22 26 22 C26 22.66 26 23.32 26 24 C25.34 24 24.68 24 24 24 C25.11854586 27.72614153 25.11854586 27.72614153 28 30 C28 30.66 28 31.32 28 32 C29.32 32.33 30.64 32.66 32 33 C32 33.66 32 34.32 32 35 C32.66 35 33.32 35 34 35 C36.3310257 37.03024819 37.92105657 38.85927475 39.4375 41.5625 C41.26870775 44.4191841 43.11530926 45.29877213 46 47 C48.3191797 50.20267673 48.3371918 53.12229434 48 57 C47.34 57.66 46.68 58.32 46 59 C43.25011902 59 41.61730072 58.5602675 39.5625 56.6953125 C36 52.62677557 36 52.62677557 36 49 C35.34 49 34.68 49 34 49 C34 48.34 34 47.68 34 47 C33.34 47 32.68 47 32 47 C32 46.34 32 45.68 32 45 C31.34 45 30.68 45 30 45 C30 44.34 30 43.68 30 43 C29.34 43 28.68 43 28 43 C28 42.34 28 41.68 28 41 C27.34 41 26.68 41 26 41 C26 40.34 26 39.68 26 39 C25.34 39 24.68 39 24 39 C24 38.34 24 37.68 24 37 C19.82262526 35.40861915 16.46839215 34.78721942 12 35 C12 35.66 12 36.32 12 37 C11.34 37 10.68 37 10 37 C10 39.97 10 42.94 10 46 C10.66 46 11.32 46 12 46 C12 50.29 12 54.58 12 59 C11.34 59 10.68 59 10 59 C10 59.66 10 60.32 10 61 C8.02 61 6.04 61 4 61 C4 60.34 4 59.68 4 59 C3.34 59 2.68 59 2 59 C1.97494385 58.2479126 1.9498877 57.4958252 1.92407227 56.72094727 C1.80849486 53.33460804 1.68559655 49.94857387 1.5625 46.5625 C1.52318359 45.37849609 1.48386719 44.19449219 1.44335938 42.97460938 C1.40146484 41.84990234 1.35957031 40.72519531 1.31640625 39.56640625 C1.27974854 38.52427979 1.24309082 37.48215332 1.20532227 36.40844727 C1.26484659 34.0500174 1.26484659 34.0500174 0 33 C-0.08843793 30.55169574 -0.11528752 28.13179401 -0.09765625 25.68359375 C-0.0962413 24.95253922 -0.09482635 24.22148468 -0.09336853 23.46827698 C-0.08775408 21.12464368 -0.07519922 18.78110461 -0.0625 16.4375 C-0.05748686 14.85221492 -0.05292363 13.26692834 -0.04882812 11.68164062 C-0.03777997 7.7877239 -0.02050572 3.89387795 0 0 Z " fill="#EFF5D7" transform="translate(600,307)"/>
<path d="M0 0 C2.31 0 4.62 0 7 0 C7 0.66 7 1.32 7 2 C8.65 2 10.3 2 12 2 C12 2.66 12 3.32 12 4 C12.66 4 13.32 4 14 4 C14 4.66 14 5.32 14 6 C15.32 6 16.64 6 18 6 C18 7.32 18 8.64 18 10 C18.66 10 19.32 10 20 10 C20 15.94 20 21.88 20 28 C19.34 28 18.68 28 18 28 C18 28.66 18 29.32 18 30 C17.34 30 16.68 30 16 30 C16 30.66 16 31.32 16 32 C15.34 32 14.68 32 14 32 C14 32.66 14 33.32 14 34 C13.34 34 12.68 34 12 34 C12 34.66 12 35.32 12 36 C6.06 36 0.12 36 -6 36 C-6 35.34 -6 34.68 -6 34 C-7.32 34 -8.64 34 -10 34 C-10 33.34 -10 32.68 -10 32 C-10.66 32 -11.32 32 -12 32 C-12 30.68 -12 29.36 -12 28 C-12.66 28 -13.32 28 -14 28 C-14 26.68 -14 25.36 -14 24 C-14.66 24 -15.32 24 -16 24 C-16 20.7 -16 17.4 -16 14 C-15.34 14 -14.68 14 -14 14 C-14 12.02 -14 10.04 -14 8 C-13.34 8 -12.68 8 -12 8 C-12 7.34 -12 6.68 -12 6 C-11.34 6 -10.68 6 -10 6 C-10 5.34 -10 4.68 -10 4 C-8.68 4 -7.36 4 -6 4 C-6 3.34 -6 2.68 -6 2 C-4.02 2 -2.04 2 0 2 C0 1.34 0 0.68 0 0 Z " fill="#6D8B43" transform="translate(776,188)"/>
<path d="M0 0 C5.28 0 10.56 0 16 0 C16 0.66 16 1.32 16 2 C18.64 2 21.28 2 24 2 C24 2.66 24 3.32 24 4 C24.66 4 25.32 4 26 4 C26 4.66 26 5.32 26 6 C26.66 6 27.32 6 28 6 C28 7.98 28 9.96 28 12 C25.36 12 22.72 12 20 12 C20 11.34 20 10.68 20 10 C18.68 10 17.36 10 16 10 C16 9.34 16 8.68 16 8 C12.37 8 8.74 8 5 8 C5 8.66 5 9.32 5 10 C3.35 10 1.7 10 0 10 C0 10.66 0 11.32 0 12 C-0.66 12 -1.32 12 -2 12 C-2 12.66 -2 13.32 -2 14 C-2.66 14 -3.32 14 -4 14 C-4 14.66 -4 15.32 -4 16 C-4.66 16 -5.32 16 -6 16 C-6 16.66 -6 17.32 -6 18 C-6.66 18 -7.32 18 -8 18 C-8 19.32 -8 20.64 -8 22 C-8.66 22 -9.32 22 -10 22 C-9.85856168 24.7294586 -9.71200471 27.45848123 -9.5625 30.1875 C-9.52318359 30.95642578 -9.48386719 31.72535156 -9.44335938 32.51757812 C-9.22492966 36.43251075 -8.91307892 40.17120688 -8 44 C-7.34 44 -6.68 44 -6 44 C-6 44.66 -6 45.32 -6 46 C-4.68 46.33 -3.36 46.66 -2 47 C-2 47.66 -2 48.32 -2 49 C-0.68 49 0.64 49 2 49 C2 49.66 2 50.32 2 51 C3.58367747 50.85795259 5.16693318 50.71119847 6.75 50.5625 C7.63171875 50.48128906 8.5134375 50.40007812 9.421875 50.31640625 C11.69350452 50.03761535 13.79851823 49.61209423 16 49 C16 48.34 16 47.68 16 47 C17.32 47 18.64 47 20 47 C20 46.34 20 45.68 20 45 C25.75 43.875 25.75 43.875 28 45 C28 46.32 28 47.64 28 49 C27.34 49 26.68 49 26 49 C26 49.66 26 50.32 26 51 C25.34 51 24.68 51 24 51 C24 51.66 24 52.32 24 53 C23.34 53 22.68 53 22 53 C22 53.66 22 54.32 22 55 C20.68 55 19.36 55 18 55 C18 55.66 18 56.32 18 57 C11.4 57 4.8 57 -2 57 C-2 56.34 -2 55.68 -2 55 C-3.32 55 -4.64 55 -6 55 C-6 54.34 -6 53.68 -6 53 C-6.66 53 -7.32 53 -8 53 C-8 52.34 -8 51.68 -8 51 C-9.32 51 -10.64 51 -12 51 C-12 50.34 -12 49.68 -12 49 C-12.66 49 -13.32 49 -14 49 C-16.80843275 42.64016288 -17.46429901 37.41571205 -17.375 30.5 C-17.38660156 29.60152344 -17.39820313 28.70304687 -17.41015625 27.77734375 C-17.38425158 21.84517416 -16.39718934 17.42855576 -14 12 C-13.34 12 -12.68 12 -12 12 C-12 11.34 -12 10.68 -12 10 C-11.34 10 -10.68 10 -10 10 C-10 9.34 -10 8.68 -10 8 C-9.34 8 -8.68 8 -8 8 C-8 7.34 -8 6.68 -8 6 C-7.34 6 -6.68 6 -6 6 C-6 5.34 -6 4.68 -6 4 C-4.68 4 -3.36 4 -2 4 C-2 3.34 -2 2.68 -2 2 C-1.34 2 -0.68 2 0 2 C0 1.34 0 0.68 0 0 Z " fill="#EEF5D6" transform="translate(665,307)"/>
<path d="M0 0 C2.64 0 5.28 0 8 0 C9.19934832 15.02853622 10.27926736 29.91956249 10 45 C17.92 44.505 17.92 44.505 26 44 C26 43.34 26 42.68 26 42 C27.98 42 29.96 42 32 42 C32 41.34 32 40.68 32 40 C33.32 40 34.64 40 36 40 C36 39.34 36 38.68 36 38 C41.75 37.875 41.75 37.875 44 39 C44 40.98 44 42.96 44 45 C43.34 45 42.68 45 42 45 C42 45.66 42 46.32 42 47 C40.68 47 39.36 47 38 47 C38 47.66 38 48.32 38 49 C36.1291122 49.67812114 34.25305707 50.3419946 32.375 51 C31.33085938 51.37125 30.28671875 51.7425 29.2109375 52.125 C25.98225494 53.00483564 23.32755706 53.15988262 20 53 C20 53.66 20 54.32 20 55 C17.41659616 55.02703562 14.83347692 55.04685611 12.25 55.0625 C11.52039063 55.07087891 10.79078125 55.07925781 10.0390625 55.08789062 C6.51329442 55.10391684 3.38965084 54.95292713 0 54 C-1.09623522 20.13915989 -1.09623522 20.13915989 -1.125 9 C-1.12951172 8.29117676 -1.13402344 7.58235352 -1.13867188 6.85205078 C-1.12458502 2.24917003 -1.12458502 2.24917003 0 0 Z " fill="#F0F6D8" transform="translate(748,305)"/>
<path d="M0 0 C0 0.66 0 1.32 0 2 C0.66 2 1.32 2 2 2 C2 2.66 2 3.32 2 4 C3.32 4 4.64 4 6 4 C6 4.66 6 5.32 6 6 C6.66 6 7.32 6 8 6 C8 7.32 8 8.64 8 10 C8.66 10 9.32 10 10 10 C10 13.96 10 17.92 10 22 C8.68 22 7.36 22 6 22 C6 22.66 6 23.32 6 24 C2.04 24 -1.92 24 -6 24 C-6 23.34 -6 22.68 -6 22 C-6.66 22 -7.32 22 -8 22 C-8 21.34 -8 20.68 -8 20 C-9.32 20 -10.64 20 -12 20 C-12.33 18.68 -12.66 17.36 -13 16 C-13.66 16 -14.32 16 -15 16 C-15 15.34 -15 14.68 -15 14 C-15.99 14 -16.98 14 -18 14 C-18 10.7 -18 7.4 -18 4 C-17.34 4 -16.68 4 -16 4 C-16 3.34 -16 2.68 -16 2 C-15.34 2 -14.68 2 -14 2 C-14 1.34 -14 0.68 -14 0 C-9.20699867 -1.39151652 -4.84864218 -0.68662689 0 0 Z " fill="#F3F8DA" transform="translate(768,255)"/>
<path d="M0 0 C0.99 0 1.98 0 3 0 C3 0.66 3 1.32 3 2 C4.32 2 5.64 2 7 2 C6.67 5.3 6.34 8.6 6 12 C8.97 12 11.94 12 15 12 C15.125 17.75 15.125 17.75 14 20 C11.03 20 8.06 20 5 20 C4.67 23.3 4.34 26.6 4 30 C1.36 30 -1.28 30 -4 30 C-4 26.04 -4 22.08 -4 18 C-6.64 18 -9.28 18 -12 18 C-12 15.36 -12 12.72 -12 10 C-8.7 10 -5.4 10 -2 10 C-1.855625 9.0925 -1.71125 8.185 -1.5625 7.25 C-1.13590527 4.78523044 -0.64925779 2.41152893 0 0 Z " fill="#214403" transform="translate(733,382)"/>
<path d="M0 0 C0 2.97 0 5.94 0 9 C-0.78246094 9.06058594 -1.56492187 9.12117188 -2.37109375 9.18359375 C-3.38300781 9.26738281 -4.39492188 9.35117187 -5.4375 9.4375 C-6.44683594 9.51871094 -7.45617187 9.59992188 -8.49609375 9.68359375 C-10.93640779 9.73211468 -10.93640779 9.73211468 -12 11 C-15.36109285 11.32526705 -18.7233399 11.5135946 -22.09375 11.71875 C-24.89050132 11.6785989 -24.89050132 11.6785989 -26 13 C-27.66617115 13.04063832 -29.33388095 13.042721 -31 13 C-32.35439668 10.29120665 -32.06501451 7.99066732 -32 5 C-26.60267798 3.33094861 -21.26646049 2.29685088 -15.6875 1.4375 C-2.54129947 -0.60188672 -2.54129947 -0.60188672 0 0 Z " fill="#284A09" transform="translate(660,252)"/>
<path d="M0 0 C1.93166016 0.01740234 1.93166016 0.01740234 3.90234375 0.03515625 C5.19269531 0.04417969 6.48304688 0.05320312 7.8125 0.0625 C8.81152344 0.07410156 9.81054688 0.08570313 10.83984375 0.09765625 C11.16984375 2.73765625 11.49984375 5.37765625 11.83984375 8.09765625 C8.53984375 8.09765625 5.23984375 8.09765625 1.83984375 8.09765625 C1.83984375 8.75765625 1.83984375 9.41765625 1.83984375 10.09765625 C-2.12015625 10.09765625 -6.08015625 10.09765625 -10.16015625 10.09765625 C-10.16015625 10.75765625 -10.16015625 11.41765625 -10.16015625 12.09765625 C-13.13015625 12.09765625 -16.10015625 12.09765625 -19.16015625 12.09765625 C-19.16015625 9.45765625 -19.16015625 6.81765625 -19.16015625 4.09765625 C-14.75059657 2.40167176 -10.68377068 1.72689764 -6.015625 1.34375 C-3.11802453 0.95943667 -3.41941319 0.1056679 0 0 Z " fill="#1F4202" transform="translate(651.16015625,264.90234375)"/>
<path d="M0 0 C2.64 0 5.28 0 8 0 C8 0.66 8 1.32 8 2 C8.66 2 9.32 2 10 2 C10 2.66 10 3.32 10 4 C10.66 4 11.32 4 12 4 C12 7.3 12 10.6 12 14 C11.34 14 10.68 14 10 14 C10 14.66 10 15.32 10 16 C6.04 16 2.08 16 -2 16 C-2 15.34 -2 14.68 -2 14 C-2.66 14 -3.32 14 -4 14 C-4 10.7 -4 7.4 -4 4 C-3.34 4 -2.68 4 -2 4 C-2 3.34 -2 2.68 -2 2 C-1.34 2 -0.68 2 0 2 C0 1.34 0 0.68 0 0 Z " fill="#F4F9DE" transform="translate(491,659)"/>
<path d="M0 0 C1.93742341 -0.02703381 3.87495479 -0.04641125 5.8125 -0.0625 C6.89144531 -0.07410156 7.97039063 -0.08570313 9.08203125 -0.09765625 C12 0 12 0 15 1 C17.05893621 1.22325814 19.12233653 1.40705759 21.1875 1.5625 C22.27417969 1.64628906 23.36085938 1.73007812 24.48046875 1.81640625 C25.72763672 1.90728516 25.72763672 1.90728516 27 2 C27 4.64 27 7.28 27 10 C24.18743719 10.02684312 21.37512759 10.04676188 18.5625 10.0625 C17.76005859 10.07087891 16.95761719 10.07925781 16.13085938 10.08789062 C14.08704779 10.0965143 12.04316098 10.0522815 10 10 C9.67 9.67 9.34 9.34 9 9 C7.48530552 8.76807135 5.96245438 8.58784762 4.4375 8.4375 C3.61121094 8.35371094 2.78492188 8.26992188 1.93359375 8.18359375 C1.29550781 8.12300781 0.65742187 8.06242187 0 8 C0 5.36 0 2.72 0 0 Z " fill="#244606" transform="translate(717,414)"/>
<path d="M0 0 C3.96 0 7.92 0 12 0 C13.28317892 3.84953676 13.06643637 6.94738135 13 11 C12.34 11 11.68 11 11 11 C11 11.66 11 12.32 11 13 C9.68 13 8.36 13 7 13 C7 13.66 7 14.32 7 15 C1.375 15.25 1.375 15.25 -2 13 C-2.29296875 10.3984375 -2.29296875 10.3984375 -2.1875 7.375 C-2.16042969 6.37210938 -2.13335938 5.36921875 -2.10546875 4.3359375 C-2.07066406 3.56507813 -2.03585937 2.79421875 -2 2 C-1.34 2 -0.68 2 0 2 C0 1.34 0 0.68 0 0 Z " fill="#F0F6DB" transform="translate(638,644)"/>
<path d="M0 0 C0.66 0 1.32 0 2 0 C2 0.66 2 1.32 2 2 C2.66 2 3.32 2 4 2 C4 3.32 4 4.64 4 6 C4.66 6 5.32 6 6 6 C7.72577473 11.2851851 8 14.03527231 8 20 C3.38 20 -1.24 20 -6 20 C-6 18.02 -6 16.04 -6 14 C-5.34 14 -4.68 14 -4 14 C-4 12.02 -4 10.04 -4 8 C-3.34 8 -2.68 8 -2 8 C-2 6.02 -2 4.04 -2 2 C-1.34 2 -0.68 2 0 2 C0 1.34 0 0.68 0 0 Z " fill="#7A9651" transform="translate(719,317)"/>
<path d="M0 0 C0.66 0 1.32 0 2 0 C1.67 2.64 1.34 5.28 1 8 C0.34 8 -0.32 8 -1 8 C-1 16.91 -1 25.82 -1 35 C-0.34 35 0.32 35 1 35 C0.34 36.32 -0.32 37.64 -1 39 C-2.35439668 36.29120665 -2.06501451 33.99066732 -2 31 C-2.66 31 -3.32 31 -4 31 C-4 22.75 -4 14.5 -4 6 C-3.34 6 -2.68 6 -2 6 C-2 5.34 -2 4.68 -2 4 C-1.34 4 -0.68 4 0 4 C0 2.68 0 1.36 0 0 Z " fill="#5C7E65" transform="translate(475,630)"/>
<path d="M0 0 C0.33 0.66 0.66 1.32 1 2 C1.66 2 2.32 2 3 2 C3 14.87 3 27.74 3 41 C7.95 40.67 12.9 40.34 18 40 C18 40.66 18 41.32 18 42 C10.08 42.495 10.08 42.495 2 43 C-0.38297872 13.89361702 -0.38297872 13.89361702 0 0 Z " fill="#A4B881" transform="translate(756,307)"/>
<path d="M0 0 C0.66 0 1.32 0 2 0 C2 15.51 2 31.02 2 47 C1.34 47 0.68 47 0 47 C0 43.04 0 39.08 0 35 C-0.66 35 -1.32 35 -2 35 C-2 26.75 -2 18.5 -2 10 C-1.34 10 -0.68 10 0 10 C0 6.7 0 3.4 0 0 Z " fill="#9DB07B" transform="translate(572,311)"/>
<path d="M0 0 C3.96 0 7.92 0 12 0 C12 0.66 12 1.32 12 2 C12.66 2 13.32 2 14 2 C14 3.32 14 4.64 14 6 C10.57905758 8.28062828 9.31812778 8.21925007 5.3125 8.125 C3.82169922 8.09792969 3.82169922 8.09792969 2.30078125 8.0703125 C1.54152344 8.04710937 0.78226563 8.02390625 0 8 C0 5.36 0 2.72 0 0 Z " fill="#F2F8DA" transform="translate(816,424)"/>
<path d="M0 0 C1.98 0 3.96 0 6 0 C6 0.66 6 1.32 6 2 C6.66 2 7.32 2 8 2 C8 2.66 8 3.32 8 4 C8.66 4 9.32 4 10 4 C10 4.66 10 5.32 10 6 C9.34 6 8.68 6 8 6 C8 6.66 8 7.32 8 8 C7.34 8 6.68 8 6 8 C6 8.66 6 9.32 6 10 C4.02 10 2.04 10 0 10 C0 9.34 0 8.68 0 8 C-1.32 8 -2.64 8 -4 8 C-4 6.02 -4 4.04 -4 2 C-2.68 2 -1.36 2 0 2 C0 1.34 0 0.68 0 0 Z " fill="#E6EECC" transform="translate(776,192)"/>
<path d="M0 0 C0.33 0.66 0.66 1.32 1 2 C0.31292969 2.06058594 -0.37414062 2.12117187 -1.08203125 2.18359375 C-2.43361328 2.30927734 -2.43361328 2.30927734 -3.8125 2.4375 C-4.70582031 2.51871094 -5.59914063 2.59992187 -6.51953125 2.68359375 C-9.12743559 2.93489767 -9.12743559 2.93489767 -12 4 C-12 7.63 -12 11.26 -12 15 C-5.05206255 16.73698436 2.21028149 17.30489346 8.75 14 C10.35875 13.01 10.35875 13.01 12 12 C11.42655063 14.86724686 11.1385485 15.8614515 9 18 C7.09228516 18.25878906 7.09228516 18.25878906 4.7890625 18.265625 C3.95632813 18.26820313 3.12359375 18.27078125 2.265625 18.2734375 C1.39421875 18.26570312 0.5228125 18.25796875 -0.375 18.25 C-1.23867188 18.25773438 -2.10234375 18.26546875 -2.9921875 18.2734375 C-3.8275 18.27085937 -4.6628125 18.26828125 -5.5234375 18.265625 C-6.28575684 18.26336914 -7.04807617 18.26111328 -7.83349609 18.25878906 C-10.29544251 17.96470937 -11.90010293 17.30560568 -14 16 C-15.20272819 13.59454362 -15.10071472 12.05003047 -15.0625 9.375 C-15.05347656 8.55773437 -15.04445313 7.74046875 -15.03515625 6.8984375 C-15.02355469 6.27195312 -15.01195312 5.64546875 -15 5 C-14.34 5 -13.68 5 -13 5 C-13 4.34 -13 3.68 -13 3 C-9.83759418 0.89172945 -8.49342531 0.66182535 -4.8125 0.375 C-3.46091797 0.26285156 -3.46091797 0.26285156 -2.08203125 0.1484375 C-1.39496094 0.09945312 -0.70789063 0.05046875 0 0 Z " fill="#B1C3A9" transform="translate(537,727)"/>
<path d="M0 0 C5.94 1.485 5.94 1.485 12 3 C12 3.66 12 4.32 12 5 C13.04800781 4.98259766 13.04800781 4.98259766 14.1171875 4.96484375 C15.02726563 4.95582031 15.93734375 4.94679688 16.875 4.9375 C18.23238281 4.92009766 18.23238281 4.92009766 19.6171875 4.90234375 C22 5 22 5 24 6 C26.84208026 6.15706331 29.66337307 6.2584957 32.5078125 6.31640625 C33.34843231 6.33718735 34.18905212 6.35796844 35.05514526 6.37937927 C37.74501235 6.44485439 40.43497843 6.5037502 43.125 6.5625 C44.94662489 6.60568716 46.76823971 6.64930152 48.58984375 6.69335938 C53.05979394 6.80053368 57.52984386 6.90180685 62 7 C62 7.33 62 7.66 62 8 C60.86820313 8.06058594 59.73640625 8.12117188 58.5703125 8.18359375 C57.08852855 8.26799917 55.6067584 8.35264717 54.125 8.4375 C53.00544922 8.49647461 53.00544922 8.49647461 51.86328125 8.55664062 C47.80013136 8.71573624 47.80013136 8.71573624 44 10 C42.00039988 10.039992 39.99952758 10.04346799 38 10 C38 9.34 38 8.68 38 8 C36.30230469 8.01740234 36.30230469 8.01740234 34.5703125 8.03515625 C33.08854331 8.04453454 31.60677235 8.0536347 30.125 8.0625 C29.37863281 8.07087891 28.63226562 8.07925781 27.86328125 8.08789062 C22.2265625 8.11328125 22.2265625 8.11328125 20 7 C18.29636178 6.77377919 16.58671299 6.59111527 14.875 6.4375 C13.96492187 6.35371094 13.05484375 6.26992188 12.1171875 6.18359375 C11.41851563 6.12300781 10.71984375 6.06242187 10 6 C10 5.34 10 4.68 10 4 C8.02 4 6.04 4 4 4 C4 3.34 4 2.68 4 2 C2.68 1.67 1.36 1.34 0 1 C0 0.67 0 0.34 0 0 Z " fill="#C4D0A6" transform="translate(651,448)"/>
<path d="M0 0 C0.66 0 1.32 0 2 0 C2.06058594 0.78246094 2.12117187 1.56492187 2.18359375 2.37109375 C2.26738281 3.38300781 2.35117187 4.39492188 2.4375 5.4375 C2.51871094 6.44683594 2.59992187 7.45617187 2.68359375 8.49609375 C2.73211468 10.93640779 2.73211468 10.93640779 4 12 C4.04092937 14.33297433 4.04241723 16.66705225 4 19 C4.66 19 5.32 19 6 19 C6.25 24.625 6.25 24.625 4 28 C-0.05445642 28.43132515 -1.54970958 28.30019361 -5 26 C-5.29296875 23.8359375 -5.29296875 23.8359375 -5.1875 21.375 C-5.16042969 20.55773437 -5.13335938 19.74046875 -5.10546875 18.8984375 C-5.05326172 17.95871094 -5.05326172 17.95871094 -5 17 C-5.66 17 -6.32 17 -7 17 C-7 14.69 -7 12.38 -7 10 C-6.67 10 -6.34 10 -6 10 C-6 11.65 -6 13.3 -6 15 C-5.34 15 -4.68 15 -4 15 C-4 17.64 -4 20.28 -4 23 C-3.34 23 -2.68 23 -2 23 C-2 23.66 -2 24.32 -2 25 C-0.35 25 1.3 25 3 25 C2.85904936 23.3745692 2.71207913 21.74965949 2.5625 20.125 C2.48128906 19.22007812 2.40007813 18.31515625 2.31640625 17.3828125 C2.13010715 14.98889139 2.13010715 14.98889139 1 13 C0.77049681 10.795636 0.58924067 8.58607827 0.4375 6.375 C0.35371094 5.18648438 0.26992188 3.99796875 0.18359375 2.7734375 C0.09271484 1.40058594 0.09271484 1.40058594 0 0 Z " fill="#9CB278" transform="translate(737,337)"/>
<path d="M0 0 C2.64 0.33 5.28 0.66 8 1 C8 1.66 8 2.32 8 3 C19.22 3 30.44 3 42 3 C36.47466152 7.14400386 32.21871907 6.4788344 25.5 6.4375 C23.81777344 6.4674707 23.81777344 6.4674707 22.1015625 6.49804688 C14.06676833 6.49340785 7.45000493 4.97814116 0 2 C0 1.34 0 0.68 0 0 Z " fill="#62836A" transform="translate(558,739)"/>
<path d="M0 0 C3.63 0 7.26 0 11 0 C11.04241723 2.33294775 11.04092937 4.66702567 11 7 C10 8 10 8 8.15234375 8.09765625 C6.1015625 8.06510417 4.05078125 8.03255208 2 8 C2 7.34 2 6.68 2 6 C1.34 6 0.68 6 0 6 C0 4.02 0 2.04 0 0 Z " fill="#EBF2D2" transform="translate(531,354)"/>
<path d="M0 0 C0.66 0 1.32 0 2 0 C2 0.66 2 1.32 2 2 C3.32 2 4.64 2 6 2 C6 2.66 6 3.32 6 4 C12.6 4 19.2 4 26 4 C26 3.34 26 2.68 26 2 C27.32 2.33 28.64 2.66 30 3 C29.34 3 28.68 3 28 3 C28 3.66 28 4.32 28 5 C26.68 5 25.36 5 24 5 C24 5.66 24 6.32 24 7 C19.38 7 14.76 7 10 7 C10 6.34 10 5.68 10 5 C8.02 5 6.04 5 4 5 C4 4.34 4 3.68 4 3 C2.68 2.67 1.36 2.34 0 2 C0 1.34 0 0.68 0 0 Z " fill="#A2B67F" transform="translate(657,360)"/>
<path d="M0 0 C2.64 0 5.28 0 8 0 C8 2.64 8 5.28 8 8 C6.02 8 4.04 8 2 8 C2 7.34 2 6.68 2 6 C1.34 6 0.68 6 0 6 C0 4.02 0 2.04 0 0 Z " fill="#DEE8CD" transform="translate(499,643)"/>
<path d="M0 0 C0.74958984 0.00902344 1.49917969 0.01804687 2.27148438 0.02734375 C4.11862654 0.05087422 5.96560412 0.08674439 7.8125 0.125 C7.8125 0.785 7.8125 1.445 7.8125 2.125 C2.8625 2.125 -2.0875 2.125 -7.1875 2.125 C-7.1875 2.785 -7.1875 3.445 -7.1875 4.125 C-7.8475 4.125 -8.5075 4.125 -9.1875 4.125 C-9.47625 4.764375 -9.765 5.40375 -10.0625 6.0625 C-11.1875 8.125 -11.1875 8.125 -13.1875 9.125 C-13.8475 8.795 -14.5075 8.465 -15.1875 8.125 C-15.1875 7.465 -15.1875 6.805 -15.1875 6.125 C-14.5275 6.125 -13.8675 6.125 -13.1875 6.125 C-13.1875 5.465 -13.1875 4.805 -13.1875 4.125 C-12.5275 4.125 -11.8675 4.125 -11.1875 4.125 C-11.1875 3.465 -11.1875 2.805 -11.1875 2.125 C-7.39586973 -0.40275351 -4.37875969 -0.09943035 0 0 Z " fill="#426A50" transform="translate(643.1875,605.875)"/>
<path d="M0 0 C0 0.33 0 0.66 0 1 C-2.97 1 -5.94 1 -9 1 C-9 1.66 -9 2.32 -9 3 C-9.66 3 -10.32 3 -11 3 C-11 5.97 -11 8.94 -11 12 C-11.99 12 -12.98 12 -14 12 C-14 8.7 -14 5.4 -14 2 C-13.34 2 -12.68 2 -12 2 C-12 1.34 -12 0.68 -12 0 C-7.74433453 -1.16063604 -4.3164922 -0.76173392 0 0 Z " fill="#78957B" transform="translate(647,643)"/>
<path d="M0 0 C0.33 1.32 0.66 2.64 1 4 C0.34 4 -0.32 4 -1 4 C-1 5.32 -1 6.64 -1 8 C-1.66 8 -2.32 8 -3 8 C-3 12.29 -3 16.58 -3 21 C-2.34 21 -1.68 21 -1 21 C-1 22.65 -1 24.3 -1 26 C-0.34 26 0.32 26 1 26 C1 26.99 1 27.98 1 29 C1.66 29 2.32 29 3 29 C2.67 29.66 2.34 30.32 2 31 C1.34 30.67 0.68 30.34 0 30 C0 29.34 0 28.68 0 28 C-0.66 28 -1.32 28 -2 28 C-4.35582065 23.37183267 -4.23521469 19.24465865 -4.125 14.1875 C-4.11597656 13.39923828 -4.10695313 12.61097656 -4.09765625 11.79882812 C-4.07422504 9.86575334 -4.03835838 7.9328362 -4 6 C-3.34 6 -2.68 6 -2 6 C-2 4.68 -2 3.36 -2 2 C-1.34 2 -0.68 2 0 2 C0 1.34 0 0.68 0 0 Z " fill="#9EB37A" transform="translate(659,323)"/>
<path d="M0 0 C1.93166016 0.01740234 1.93166016 0.01740234 3.90234375 0.03515625 C5.19269531 0.04417969 6.48304688 0.05320312 7.8125 0.0625 C8.81152344 0.07410156 9.81054688 0.08570313 10.83984375 0.09765625 C11.16984375 2.73765625 11.49984375 5.37765625 11.83984375 8.09765625 C11.17984375 8.09765625 10.51984375 8.09765625 9.83984375 8.09765625 C9.83984375 5.78765625 9.83984375 3.47765625 9.83984375 1.09765625 C8.61007812 1.31421875 7.3803125 1.53078125 6.11328125 1.75390625 C4.48051384 2.03541787 2.84769878 2.31665329 1.21484375 2.59765625 C0.40660156 2.74074219 -0.40164063 2.88382812 -1.234375 3.03125 C-5.59893489 3.77641876 -9.71253754 4.27037931 -14.16015625 4.09765625 C-13.83015625 3.43765625 -13.50015625 2.77765625 -13.16015625 2.09765625 C-11.12890625 1.71875 -11.12890625 1.71875 -8.66015625 1.53515625 C-5.2778775 1.27292261 -3.25500208 0.10058721 0 0 Z " fill="#40611D" transform="translate(651.16015625,264.90234375)"/>
<path d="M0 0 C2.31 0 4.62 0 7 0 C7 2.31 7 4.62 7 7 C4.69 7 2.38 7 0 7 C0 4.69 0 2.38 0 0 Z " fill="#F2F8DD" transform="translate(648,626)"/>
<path d="M0 0 C0.66 0 1.32 0 2 0 C1.67 6.93 1.34 13.86 1 21 C0.34 21 -0.32 21 -1 21 C-1.12375 21.804375 -1.2475 22.60875 -1.375 23.4375 C-1.684375 24.7059375 -1.684375 24.7059375 -2 26 C-2.66 26.33 -3.32 26.66 -4 27 C-3.69217504 25.35328588 -3.37860766 23.70764424 -3.0625 22.0625 C-2.88847656 21.14597656 -2.71445312 20.22945312 -2.53515625 19.28515625 C-2 17 -2 17 -1 16 C-0.76321284 13.30764224 -0.57801975 10.63501844 -0.4375 7.9375 C-0.39431641 7.17888672 -0.35113281 6.42027344 -0.30664062 5.63867188 C-0.20026367 3.75934562 -0.09960066 1.87969756 0 0 Z " fill="#97AE94" transform="translate(667,638)"/>
<path d="M0 0 C0.33 0 0.66 0 1 0 C1.33 6.93 1.66 13.86 2 21 C1.34 21 0.68 21 0 21 C-2.38390812 15.48721247 -2.60763524 9.91550776 -2 4 C-0.984375 1.6640625 -0.984375 1.6640625 0 0 Z " fill="#9AAF75" transform="translate(647,329)"/>
<path d="M0 0 C0.33 0.99 0.66 1.98 1 3 C-0.62256514 4.95172976 -1.51841152 5.90893974 -4.05297852 6.38818359 C-4.82053467 6.39156738 -5.58809082 6.39495117 -6.37890625 6.3984375 C-7.21744141 6.40230469 -8.05597656 6.40617188 -8.91992188 6.41015625 C-9.79197266 6.39855469 -10.66402344 6.38695312 -11.5625 6.375 C-12.87637695 6.39240234 -12.87637695 6.39240234 -14.21679688 6.41015625 C-15.05404297 6.40628906 -15.89128906 6.40242187 -16.75390625 6.3984375 C-17.90354858 6.39336182 -17.90354858 6.39336182 -19.07641602 6.38818359 C-21 6 -21 6 -23 3 C-22.18982422 3.23783203 -22.18982422 3.23783203 -21.36328125 3.48046875 C-15.22505063 4.8298649 -8.30911902 5.21724066 -2.75 2 C-1.8425 1.34 -0.935 0.68 0 0 Z " fill="#9CB298" transform="translate(548,739)"/>
<path d="M0 0 C1.37478516 0.01740234 1.37478516 0.01740234 2.77734375 0.03515625 C3.69644531 0.04417969 4.61554687 0.05320312 5.5625 0.0625 C6.27277344 0.07410156 6.98304688 0.08570313 7.71484375 0.09765625 C7.71484375 0.42765625 7.71484375 0.75765625 7.71484375 1.09765625 C6.01328125 1.31421875 6.01328125 1.31421875 4.27734375 1.53515625 C0.90707174 1.70937103 0.90707174 1.70937103 -0.28515625 3.09765625 C-2.09326809 3.30661942 -3.90731657 3.46545986 -5.72265625 3.59765625 C-9.6495054 3.81184808 -9.6495054 3.81184808 -13.28515625 5.09765625 C-15.95751835 5.23181097 -18.60766113 5.14084166 -21.28515625 5.09765625 C-20.64578125 4.78828125 -20.00640625 4.47890625 -19.34765625 4.16015625 C-17.34904804 3.26313995 -17.34904804 3.26313995 -16.28515625 2.09765625 C-12.9240634 1.7723892 -9.56181635 1.58406165 -6.19140625 1.37890625 C-3.18013907 1.0874933 -2.83472484 0.12114209 0 0 Z " fill="#4A6A25" transform="translate(651.28515625,260.90234375)"/>
<path d="M0 0 C0.33 1.32 0.66 2.64 1 4 C1.66 4 2.32 4 3 4 C3 10.93 3 17.86 3 25 C2.34 25 1.68 25 1 25 C1.33 19.39 1.66 13.78 2 8 C1.34 8 0.68 8 0 8 C0 5.36 0 2.72 0 0 Z " fill="#D2DEC3" transform="translate(667,630)"/>
<path d="M0 0 C1.13308594 0.24556641 1.13308594 0.24556641 2.2890625 0.49609375 C7.33130119 1.18077669 12.29359795 1.10511821 17.375 1.0625 C18.39722656 1.05798828 19.41945313 1.05347656 20.47265625 1.04882812 C22.98183194 1.037103 25.4908849 1.02069176 28 1 C28 1.66 28 2.32 28 3 C19.42 3 10.84 3 2 3 C2 2.34 2 1.68 2 1 C1.34 0.67 0.68 0.34 0 0 Z " fill="#94AB91" transform="translate(568,726)"/>
<path d="M0 0 C0.66 0 1.32 0 2 0 C2 0.66 2 1.32 2 2 C2.66 2 3.32 2 4 2 C4.33 6.62 4.66 11.24 5 16 C4.34 16 3.68 16 3 16 C3 14.68 3 13.36 3 12 C2.34 12 1.68 12 1 12 C0.67 8.04 0.34 4.08 0 0 Z " fill="#A8BBA1" transform="translate(553,703)"/>
<path d="M0 0 C0.66 0 1.32 0 2 0 C2 1.98 2 3.96 2 6 C2.63808594 6.06058594 3.27617188 6.12117188 3.93359375 6.18359375 C4.75988281 6.26738281 5.58617187 6.35117187 6.4375 6.4375 C7.67306641 6.55931641 7.67306641 6.55931641 8.93359375 6.68359375 C11 7 11 7 12 8 C13.34747084 8.23075082 14.70377565 8.41153063 16.0625 8.5625 C17.361875 8.706875 18.66125 8.85125 20 9 C20 9.33 20 9.66 20 10 C18.35425434 10.02688151 16.70838587 10.04634123 15.0625 10.0625 C14.14597656 10.07410156 13.22945312 10.08570313 12.28515625 10.09765625 C10 10 10 10 9 9 C7.48530552 8.76807135 5.96245438 8.58784762 4.4375 8.4375 C3.61121094 8.35371094 2.78492188 8.26992188 1.93359375 8.18359375 C1.29550781 8.12300781 0.65742187 8.06242187 0 8 C0 5.36 0 2.72 0 0 Z " fill="#335512" transform="translate(717,414)"/>
<path d="M0 0 C5.61 0 11.22 0 17 0 C17 0.66 17 1.32 17 2 C12.71 1.67 8.42 1.34 4 1 C4 1.66 4 2.32 4 3 C2.02 3 0.04 3 -2 3 C-2 3.66 -2 4.32 -2 5 C-3.32 4.67 -4.64 4.34 -6 4 C-5.34 4 -4.68 4 -4 4 C-4 3.34 -4 2.68 -4 2 C-2.68 2 -1.36 2 0 2 C0 1.34 0 0.68 0 0 Z " fill="#BBCA9B" transform="translate(533,346)"/>
<path d="M0 0 C0.66 0 1.32 0 2 0 C2 1.98 2 3.96 2 6 C2.66 6 3.32 6 4 6 C4 11.28 4 16.56 4 22 C3.34 22 2.68 22 2 22 C2.02320313 21.39414062 2.04640625 20.78828125 2.0703125 20.1640625 C2.19105886 14.55798131 1.68325236 9.49871868 0.4375 4.03125 C0 2 0 2 0 0 Z " fill="#66866D" transform="translate(537,705)"/>
<path d="M0 0 C2.375 0.25 2.375 0.25 5 1 C6.3125 3.0625 6.3125 3.0625 7 5 C7.66 5 8.32 5 9 5 C9.33 6.65 9.66 8.3 10 10 C9.34 10 8.68 10 8 10 C8 9.34 8 8.68 8 8 C7.34 8 6.68 8 6 8 C6 7.34 6 6.68 6 6 C5.34 6 4.68 6 4 6 C4 5.34 4 4.68 4 4 C3.34 4 2.68 4 2 4 C2 3.34 2 2.68 2 2 C1.34 2 0.68 2 0 2 C0 1.34 0 0.68 0 0 Z " fill="#AEC0A6" transform="translate(653,608)"/>
<path d="M0 0 C0 0.66 0 1.32 0 2 C-5.5102485 4.32492213 -10.51112885 4.23374511 -16.375 4.125 C-17.76525391 4.11146484 -17.76525391 4.11146484 -19.18359375 4.09765625 C-21.45600077 4.07422937 -23.7278618 4.04142748 -26 4 C-26 3.34 -26 2.68 -26 2 C-20.06 2.33 -14.12 2.66 -8 3 C-8 2.34 -8 1.68 -8 1 C-2.25 0 -2.25 0 0 0 Z " fill="#87A160" transform="translate(776,357)"/>
<path d="M0 0 C0.66 0 1.32 0 2 0 C2 7.59 2 15.18 2 23 C3.32 23.33 4.64 23.66 6 24 C5.34 24 4.68 24 4 24 C4 24.66 4 25.32 4 26 C3.01 25.67 2.02 25.34 1 25 C0.67 16.75 0.34 8.5 0 0 Z " fill="#D8E2BD" transform="translate(606,309)"/>
<path d="M0 0 C0.66 0 1.32 0 2 0 C2.06058594 0.78246094 2.12117187 1.56492187 2.18359375 2.37109375 C2.26738281 3.38300781 2.35117187 4.39492188 2.4375 5.4375 C2.55931641 6.95150391 2.55931641 6.95150391 2.68359375 8.49609375 C2.73211468 10.93640779 2.73211468 10.93640779 4 12 C4.28671723 13.80429123 4.50547961 15.61966002 4.6875 17.4375 C4.79449219 18.42621094 4.90148437 19.41492188 5.01171875 20.43359375 C5 23 5 23 3 25 C2.93941406 24.30132812 2.87882813 23.60265625 2.81640625 22.8828125 C2.73261719 21.97273438 2.64882813 21.06265625 2.5625 20.125 C2.44068359 18.76761719 2.44068359 18.76761719 2.31640625 17.3828125 C2.13010715 14.98889139 2.13010715 14.98889139 1 13 C0.77049681 10.795636 0.58924067 8.58607827 0.4375 6.375 C0.35371094 5.18648438 0.26992188 3.99796875 0.18359375 2.7734375 C0.12300781 1.85820312 0.06242188 0.94296875 0 0 Z " fill="#B6C695" transform="translate(737,337)"/>
<path d="M0 0 C1.86785156 0.15275391 1.86785156 0.15275391 3.7734375 0.30859375 C5.18496094 0.43427734 5.18496094 0.43427734 6.625 0.5625 C6.625 1.5525 6.625 2.5425 6.625 3.5625 C5.305 3.5625 3.985 3.5625 2.625 3.5625 C2.625 2.9025 2.625 2.2425 2.625 1.5625 C-2.655 1.5625 -7.935 1.5625 -13.375 1.5625 C-13.375 1.2325 -13.375 0.9025 -13.375 0.5625 C-8.75534912 -0.39696595 -4.69370875 -0.39852244 0 0 Z " fill="#8EA668" transform="translate(678.375,305.4375)"/>
<path d="M0 0 C0.66 0 1.32 0 2 0 C2 0.66 2 1.32 2 2 C2.66 2 3.32 2 4 2 C4 2.66 4 3.32 4 4 C4.66 4 5.32 4 6 4 C6 4.66 6 5.32 6 6 C6.66 6 7.32 6 8 6 C8.99 7.98 9.98 9.96 11 12 C7.86989542 10.60807296 5.67663308 8.97357774 3.25 6.5625 C2.63640625 5.96566406 2.0228125 5.36882812 1.390625 4.75390625 C0 3 0 3 0 0 Z " fill="#9EB37A" transform="translate(628,350)"/>
<path d="M0 0 C0.33 0.99 0.66 1.98 1 3 C0 4 0 4 -2.06640625 4.09765625 C-2.89011719 4.08605469 -3.71382812 4.07445312 -4.5625 4.0625 C-5.38878906 4.05347656 -6.21507812 4.04445313 -7.06640625 4.03515625 C-7.70449219 4.02355469 -8.34257813 4.01195312 -9 4 C-9 4.66 -9 5.32 -9 6 C-10.32 6 -11.64 6 -13 6 C-13 5.34 -13 4.68 -13 4 C-9.68629 1.79086 -8.6553979 1.77518447 -4.8125 1.875 C-3.91144531 1.89304687 -3.01039063 1.91109375 -2.08203125 1.9296875 C-1.39496094 1.95289063 -0.70789063 1.97609375 0 2 C0 1.34 0 0.68 0 0 Z " fill="#396248" transform="translate(538,727)"/>
<path d="M0 0 C0.66 0 1.32 0 2 0 C3.98178668 4.9544667 4.33928653 8.74105883 4 14 C3.34 15.32 2.68 16.64 2 18 C2 13.38 2 8.76 2 4 C1.34 4 0.68 4 0 4 C0 2.68 0 1.36 0 0 Z " fill="#C0CEA0" transform="translate(568,364)"/>
<path d="M0 0 C3.3 0 6.6 0 10 0 C10 0.66 10 1.32 10 2 C7.36 1.67 4.72 1.34 2 1 C2 1.66 2 2.32 2 3 C0.68 3 -0.64 3 -2 3 C-2 3.66 -2 4.32 -2 5 C-3.98 5 -5.96 5 -8 5 C-7.34 4.67 -6.68 4.34 -6 4 C-6 3.34 -6 2.68 -6 2 C-4.02 2 -2.04 2 0 2 C0 1.34 0 0.68 0 0 Z " fill="#AABC87" transform="translate(782,342)"/>
<path d="M0 0 C0.66 0 1.32 0 2 0 C2 0.66 2 1.32 2 2 C2.66 2 3.32 2 4 2 C4 3.32 4 4.64 4 6 C0.57905758 8.28062828 -0.68187222 8.21925007 -4.6875 8.125 C-6.17830078 8.09792969 -6.17830078 8.09792969 -7.69921875 8.0703125 C-8.45847656 8.04710937 -9.21773437 8.02390625 -10 8 C-10 7.34 -10 6.68 -10 6 C-6.7 6 -3.4 6 0 6 C0 4.02 0 2.04 0 0 Z " fill="#B1C28F" transform="translate(826,424)"/>
<path d="M0 0 C0.66 0 1.32 0 2 0 C2 1.32 2 2.64 2 4 C1.34 4 0.68 4 0 4 C0 5.32 0 6.64 0 8 C-0.66 8 -1.32 8 -2 8 C-2 9.32 -2 10.64 -2 12 C-2.66 12 -3.32 12 -4 12 C-3.46274105 8.62294375 -2.88935377 5.303314 -2 2 C-1.34 2 -0.68 2 0 2 C0 1.34 0 0.68 0 0 Z " fill="#79967C" transform="translate(618,699)"/>
<path d="M0 0 C0.66 0 1.32 0 2 0 C1.75 2.875 1.75 2.875 1 6 C-1.0625 7.375 -1.0625 7.375 -3 8 C-3 8.66 -3 9.32 -3 10 C-4.32 9.67 -5.64 9.34 -7 9 C-6.01 8.67 -5.02 8.34 -4 8 C-4 7.34 -4 6.68 -4 6 C-3.34 6 -2.68 6 -2 6 C-2 5.34 -2 4.68 -2 4 C-1.34 4 -0.68 4 0 4 C0 2.68 0 1.36 0 0 Z " fill="#C3D2B7" transform="translate(661,665)"/>
<path d="M0 0 C2.64 0 5.28 0 8 0 C8 0.66 8 1.32 8 2 C8.66 2.33 9.32 2.66 10 3 C6.04 3 2.08 3 -2 3 C-1.34 2.67 -0.68 2.34 0 2 C0 1.34 0 0.68 0 0 Z " fill="#BECEB4" transform="translate(491,659)"/>
<path d="M0 0 C2.475 0.495 2.475 0.495 5 1 C5.33 1.99 5.66 2.98 6 4 C8.01508358 4.73323796 8.01508358 4.73323796 10 5 C10 5.66 10 6.32 10 7 C7.03 6.505 7.03 6.505 4 6 C4 5.34 4 4.68 4 4 C3.34 4 2.68 4 2 4 C2 3.34 2 2.68 2 2 C1.34 2 0.68 2 0 2 C0 1.34 0 0.68 0 0 Z " fill="#AABDA3" transform="translate(558,719)"/>
<path d="M0 0 C0.66 0 1.32 0 2 0 C2 0.66 2 1.32 2 2 C3.32 2.33 4.64 2.66 6 3 C6 3.99 6 4.98 6 6 C6.66 6 7.32 6 8 6 C8 6.66 8 7.32 8 8 C7.01 8 6.02 8 5 8 C4.67 6.68 4.34 5.36 4 4 C2.68 4 1.36 4 0 4 C0 2.68 0 1.36 0 0 Z " fill="#5F8067" transform="translate(505,626)"/>
<path d="M0 0 C2.64 0.33 5.28 0.66 8 1 C8 1.66 8 2.32 8 3 C9.32 3.66 10.64 4.32 12 5 C7.80530429 4.40075776 3.99000166 3.42500059 0 2 C0 1.34 0 0.68 0 0 Z " fill="#7C987E" transform="translate(558,739)"/>
<path d="M0 0 C2 2 2 2 2 6 C2.66 6 3.32 6 4 6 C4 7.32 4 8.64 4 10 C3.34 10 2.68 10 2 10 C2 9.34 2 8.68 2 8 C1.34 8 0.68 8 0 8 C0 5.36 0 2.72 0 0 Z " fill="#ACBFA5" transform="translate(473,667)"/>
<path d="M0 0 C0 0.33 0 0.66 0 1 C-1.7015625 1.2165625 -1.7015625 1.2165625 -3.4375 1.4375 C-6.80777201 1.61171478 -6.80777201 1.61171478 -8 3 C-10.67058851 3.14115161 -13.32432238 3.04247107 -16 3 C-16 2.67 -16 2.34 -16 2 C-10.60539047 -0.27141454 -5.73842251 -0.20413361 0 0 Z " fill="#55742E" transform="translate(659,261)"/>
<path d="M0 0 C1.32 0 2.64 0 4 0 C4 0.66 4 1.32 4 2 C4.66 2 5.32 2 6 2 C6 2.66 6 3.32 6 4 C3.36 4 0.72 4 -2 4 C-2 3.34 -2 2.68 -2 2 C-1.34 2 -0.68 2 0 2 C0 1.34 0 0.68 0 0 Z " fill="#ACBE89" transform="translate(687,348)"/>
<path d="M0 0 C0.33 1.32 0.66 2.64 1 4 C1.66 4 2.32 4 3 4 C3 6.64 3 9.28 3 12 C2.67 10.68 2.34 9.36 2 8 C1.34 8 0.68 8 0 8 C0 5.36 0 2.72 0 0 Z " fill="#B5C594" transform="translate(734,325)"/>
<path d="M0 0 C0.33 0 0.66 0 1 0 C1 1.98 1 3.96 1 6 C0.34 6 -0.32 6 -1 6 C-1 7.98 -1 9.96 -1 12 C-1.66 12 -2.32 12 -3 12 C-2.67 9.03 -2.34 6.06 -2 3 C-1.34 3 -0.68 3 0 3 C0 2.01 0 1.02 0 0 Z " fill="#DCE6C1" transform="translate(714,325)"/>
<path d="M0 0 C1.32 0 2.64 0 4 0 C2.25 3.875 2.25 3.875 0 5 C-0.66 4.67 -1.32 4.34 -2 4 C-2 3.34 -2 2.68 -2 2 C-1.34 2 -0.68 2 0 2 C0 1.34 0 0.68 0 0 Z " fill="#2A563D" transform="translate(630,610)"/>
<path d="M0 0 C5.94 1.485 5.94 1.485 12 3 C12 3.33 12 3.66 12 4 C9.36 4 6.72 4 4 4 C4 3.34 4 2.68 4 2 C2.68 1.67 1.36 1.34 0 1 C0 0.67 0 0.34 0 0 Z " fill="#A6B785" transform="translate(651,448)"/>
<path d="M0 0 C1.32 0 2.64 0 4 0 C4 0.66 4 1.32 4 2 C4.99 2 5.98 2 7 2 C7 2.66 7 3.32 7 4 C4.03 3.505 4.03 3.505 1 3 C0.67 2.01 0.34 1.02 0 0 Z " fill="#A2B79D" transform="translate(632,673)"/>
</svg>
